<?xml version="1.0" standalone="no"?>
<!DOCTYPE svg PUBLIC "-//W3C//DTD SVG 20010904//EN"
 "http://www.w3.org/TR/2001/REC-SVG-20010904/DTD/svg10.dtd">
<svg version="1.0" xmlns="http://www.w3.org/2000/svg"
 width="1024.000000pt" height="1024.000000pt" viewBox="0 0 1024.000000 1024.000000"
 preserveAspectRatio="xMidYMid meet">
<metadata>
Created by potrace 1.15, written by Peter Selinger 2001-2017
</metadata>
<g transform="translate(0.000000,1024.000000) scale(0.100000,-0.100000)"
fill="#000000" stroke="none">
<path d="M7710 8619 c-90 -11 -137 -27 -289 -103 -80 -40 -177 -83 -214 -96
-38 -12 -84 -36 -103 -53 -44 -38 -110 -156 -125 -223 -17 -74 9 -192 69 -314
34 -70 46 -104 43 -131 -2 -29 7 -49 45 -105 58 -85 83 -139 84 -180 0 -94 30
-133 120 -160 33 -10 60 -20 60 -23 1 -3 5 -37 10 -76 l9 -70 -45 -73 c-25
-39 -54 -77 -65 -83 -11 -6 -66 -24 -122 -41 -173 -51 -212 -74 -328 -196 -56
-59 -120 -134 -141 -166 -21 -33 -38 -52 -38 -44 0 8 -13 27 -29 42 -31 30
-95 47 -221 61 -74 8 -111 24 -157 68 -44 42 -44 87 4 230 20 62 37 114 39
116 1 1 13 -6 25 -18 17 -15 36 -21 71 -21 43 0 54 5 93 41 78 72 140 226 151
374 3 39 14 106 26 149 14 56 19 102 16 152 l-3 73 43 11 c26 6 59 25 82 48
43 41 110 161 110 196 0 48 -60 146 -119 192 -81 64 -203 100 -197 57 2 -10
20 -21 54 -29 29 -8 69 -22 89 -33 75 -39 143 -131 143 -196 0 -42 -49 -86
-106 -96 -100 -16 -121 -12 -158 29 -45 49 -111 85 -211 113 -44 12 -82 24
-84 25 -2 2 6 19 18 38 39 63 97 96 229 132 6 2 12 10 12 19 0 37 -144 -3
-206 -58 -20 -16 -49 -50 -65 -73 -24 -35 -33 -42 -47 -34 -9 5 -53 30 -96 55
-95 57 -179 96 -266 125 -53 18 -81 21 -150 18 -131 -7 -195 -50 -245 -163
-38 -87 -48 -152 -49 -320 -1 -151 1 -166 32 -278 18 -65 39 -167 48 -225 23
-169 53 -254 116 -334 31 -40 165 -134 204 -144 21 -6 23 -10 18 -53 -10 -87
-12 -91 -60 -112 -24 -11 -104 -34 -177 -50 -233 -52 -248 -61 -312 -180 l-35
-64 0 80 c-1 128 -22 206 -82 302 -64 102 -121 169 -158 188 -15 8 -61 19
-102 25 -40 6 -97 18 -127 26 -54 15 -145 67 -169 96 -6 8 -15 55 -18 104 -7
89 -6 90 18 101 41 18 97 72 125 120 24 42 25 50 21 149 l-5 105 34 34 c26 26
33 41 33 71 0 57 -18 111 -42 128 -21 15 -21 16 -4 86 47 196 44 292 -14 383
-55 87 -188 167 -278 167 -28 0 -51 10 -90 40 -29 21 -68 42 -87 46 -51 9
-140 -15 -212 -59 -53 -32 -71 -38 -98 -33 -18 4 -45 2 -61 -4 -35 -13 -100
-74 -120 -112 -22 -42 -17 -116 11 -177 27 -56 108 -173 144 -205 18 -16 21
-31 21 -90 -1 -61 -2 -69 -14 -53 -16 21 -59 22 -76 2 -18 -21 -8 -141 14
-188 23 -47 54 -69 100 -70 34 -1 34 -2 21 -26 -7 -15 -18 -52 -25 -84 -15
-73 4 -145 54 -204 38 -44 123 -103 149 -103 13 0 16 -16 19 -100 l3 -100 -37
0 c-39 0 -68 -21 -68 -49 0 -24 -108 -63 -345 -126 -99 -26 -198 -57 -220 -69
-53 -28 -78 -76 -111 -216 -25 -102 -28 -139 -32 -321 -3 -183 -1 -228 23
-395 30 -216 45 -258 91 -262 18 -2 47 1 65 6 28 7 43 3 90 -21 35 -18 78 -31
117 -34 l61 -6 -5 -101 c-3 -55 -9 -128 -15 -162 -7 -47 -6 -72 7 -113 19 -64
78 -134 105 -126 11 4 19 2 19 -4 0 -6 -4 -11 -9 -11 -33 0 -89 -234 -150
-625 -12 -77 -29 -177 -36 -222 -8 -44 -33 -229 -55 -410 -23 -180 -52 -409
-65 -508 -14 -99 -32 -232 -40 -295 -21 -155 -47 -298 -107 -595 -41 -203 -51
-271 -52 -360 0 -60 -4 -113 -8 -116 -5 -3 -17 -30 -27 -60 -11 -30 -20 -47
-20 -37 -1 9 -38 47 -83 84 -46 37 -118 103 -160 147 -77 79 -78 79 -63 107
20 39 19 79 -5 151 -11 33 -23 79 -26 102 -6 47 27 467 56 717 25 204 25 258
4 281 -15 16 -17 60 -19 351 -5 585 -45 869 -169 1203 l-45 120 23 25 c31 33
46 63 62 125 17 64 18 112 1 161 -8 22 -17 51 -20 65 l-7 26 103 6 c124 6 182
26 249 86 54 48 79 91 97 164 12 51 8 82 -19 137 -14 28 -16 46 -9 90 13 96
10 295 -7 378 -9 45 -30 104 -51 142 -20 36 -53 97 -74 136 -70 128 -148 179
-293 190 -77 6 -86 9 -86 27 0 18 -1 18 -25 3 -33 -22 -59 -20 -142 8 -39 13
-96 30 -127 37 -63 14 -70 20 -102 89 l-23 50 21 0 c98 0 231 169 257 326 13
85 -20 382 -61 537 -17 65 -19 85 -9 117 6 20 11 48 11 61 -1 69 -84 169 -180
217 -49 24 -66 27 -157 27 -91 -1 -100 1 -93 16 12 22 96 92 123 102 37 14 5
28 -38 16 -28 -8 -58 -29 -100 -73 -113 -117 -190 -159 -330 -180 -93 -14 -99
-16 -140 -56 -89 -87 -128 -218 -108 -358 20 -131 79 -306 150 -439 63 -121
65 -123 98 -123 48 0 63 -33 71 -164 7 -105 7 -106 -15 -106 -25 0 -62 -17
-73 -34 -4 -6 -8 -26 -8 -44 0 -31 -4 -34 -87 -73 -49 -22 -140 -61 -203 -85
-214 -83 -244 -103 -291 -195 -33 -66 -34 -66 -122 -15 -53 31 -167 63 -257
72 -64 6 -70 8 -70 29 0 46 10 55 59 55 60 0 93 21 172 111 69 79 114 125 228
234 40 39 79 82 87 97 14 26 12 29 -74 128 -48 55 -99 124 -114 152 -26 48
-28 58 -28 178 0 166 -13 211 -85 289 -93 100 -210 137 -334 107 -61 -15 -71
-15 -104 -1 -81 34 -181 4 -319 -95 -74 -54 -110 -72 -157 -83 -34 -8 -65 -17
-68 -21 -9 -9 -21 -166 -22 -286 -1 -154 -40 -283 -110 -362 -29 -33 -31 -41
-31 -107 0 -92 21 -134 111 -224 81 -82 189 -136 321 -163 48 -10 85 -21 83
-25 -3 -3 -26 -12 -52 -19 -62 -17 -181 -75 -211 -103 -31 -29 -61 -132 -73
-252 -5 -55 -14 -125 -20 -155 -5 -30 -12 -105 -16 -165 -5 -98 -3 -119 17
-185 18 -55 34 -85 62 -113 l38 -39 99 4 c54 1 98 1 96 -3 -2 -3 -43 -25 -90
-49 -103 -51 -117 -72 -91 -127 l18 -37 -29 -20 c-50 -34 -164 -160 -188 -207
-46 -89 -57 -160 -57 -349 0 -144 4 -201 26 -320 26 -145 116 -512 201 -819
43 -154 45 -168 35 -218 -12 -57 -11 -68 25 -158 14 -33 41 -132 61 -220 47
-205 76 -283 181 -485 159 -303 221 -430 226 -463 3 -17 14 -57 25 -87 11 -30
28 -86 37 -123 10 -38 29 -82 42 -98 26 -30 211 -129 243 -129 66 0 22 203
-90 415 -35 65 -65 134 -67 152 -2 19 -32 89 -67 156 -178 340 -285 708 -336
1152 -11 99 -28 243 -37 320 -17 144 -26 736 -11 750 4 4 45 9 91 12 l83 6 20
-34 c30 -51 114 -234 187 -409 36 -85 89 -207 117 -270 104 -231 197 -512 275
-825 23 -93 60 -215 82 -270 22 -55 63 -156 91 -225 27 -69 78 -204 112 -300
34 -96 75 -200 91 -231 l28 -57 -39 -55 c-35 -48 -40 -63 -40 -109 l0 -54 -52
-19 c-81 -28 -150 -65 -146 -77 6 -18 44 -25 221 -44 174 -18 311 -15 387 9
l45 13 -3 67 c-2 65 -2 67 25 73 16 3 33 7 39 9 6 2 14 27 18 56 4 29 14 61
22 73 30 43 13 120 -37 172 l-29 30 0 270 c0 259 9 438 31 609 19 148 79 479
123 675 44 196 159 623 176 650 7 12 14 10 39 -14 22 -21 31 -41 36 -80 4 -28
32 -136 61 -241 217 -760 277 -1236 213 -1665 -12 -82 -26 -115 -58 -144 -41
-37 -17 -136 34 -136 11 0 10 -7 -6 -35 -20 -34 -36 -103 -45 -200 -8 -78 3
-86 122 -92 68 -4 107 -2 122 6 19 10 27 8 60 -18 89 -72 162 -87 472 -96 176
-5 224 -4 263 9 93 28 147 83 167 168 8 35 6 50 -9 80 l-18 38 34 29 c58 50
70 129 93 651 11 259 35 418 105 693 60 238 259 834 334 999 18 39 27 48 54
53 106 19 235 44 252 49 18 6 27 -12 93 -176 137 -345 249 -679 311 -923 26
-105 51 -295 54 -420 2 -100 -2 -133 -47 -388 -14 -76 -30 -189 -37 -252 -11
-103 -10 -119 6 -160 12 -32 29 -54 55 -71 37 -25 37 -26 27 -65 -7 -29 -6
-51 2 -78 6 -21 11 -52 11 -70 0 -17 5 -40 12 -50 8 -13 8 -29 1 -60 -8 -30
-8 -43 1 -48 6 -4 53 -9 104 -11 97 -5 202 10 238 33 18 12 28 10 79 -16 l58
-29 296 2 296 3 3 23 c2 15 9 22 17 18 8 -3 40 -1 72 4 63 10 98 39 88 70 -4
14 3 21 29 30 45 14 93 69 102 115 3 19 11 35 16 35 6 0 9 -37 7 -97 l-4 -98
52 -9 c28 -5 62 -6 75 -2 44 11 98 123 98 202 0 42 2 45 40 60 55 22 131 108
154 175 10 30 23 59 28 65 5 7 4 24 -2 40 -10 25 -137 228 -220 349 -39 57
-136 220 -220 370 -87 154 -104 180 -193 304 -44 62 -65 100 -61 110 11 26 74
291 89 371 8 41 23 118 35 170 61 270 84 496 78 756 -3 141 -8 198 -20 224
-14 33 -84 103 -143 144 -34 23 -116 189 -122 248 -3 26 3 67 14 102 16 53 22
61 50 68 17 4 43 22 57 39 26 31 66 142 66 184 0 13 4 26 9 29 5 3 7 15 4 25
-3 10 6 36 20 57 13 22 47 76 76 121 29 45 59 99 65 118 l13 36 44 -88 c86
-170 167 -220 305 -188 35 8 79 21 96 28 18 8 58 20 88 27 30 8 57 15 60 15 3
1 18 7 33 13 15 7 31 11 35 10 4 -1 20 4 35 10 16 7 34 12 42 12 7 0 16 6 18
13 4 10 6 10 6 0 1 -7 -8 -22 -19 -33 -19 -19 -19 -19 13 -14 30 6 31 5 12 -8
-24 -18 -89 -34 -170 -43 -107 -12 -98 5 -91 -178 3 -89 5 -169 5 -177 -2
-120 4 -198 17 -218 11 -17 12 -27 5 -36 -25 -30 -31 -146 -41 -772 -8 -591
-18 -853 -50 -1318 -12 -173 -12 -702 0 -811 7 -63 5 -85 -6 -102 -8 -12 -14
-45 -14 -72 0 -30 -5 -53 -13 -58 -55 -35 -156 -223 -199 -373 -5 -19 -19 -50
-30 -68 -30 -50 -17 -56 122 -60 163 -5 220 8 271 61 47 49 68 86 115 209 36
96 42 142 21 173 -23 33 -5 459 53 1290 30 425 52 610 126 1062 36 215 30 202
104 245 36 21 68 34 72 30 25 -25 41 -474 43 -1212 1 -217 10 -579 20 -805 15
-330 16 -432 7 -522 -6 -62 -16 -122 -22 -134 -7 -12 -13 -69 -13 -128 -2 -89
1 -112 16 -135 17 -26 23 -28 60 -22 23 4 54 13 69 21 16 8 30 9 34 4 3 -5 34
-9 70 -9 63 0 65 -1 85 -34 32 -55 89 -72 239 -68 142 3 210 13 328 48 78 24
82 27 82 54 0 37 -35 65 -103 80 -95 21 -91 19 -72 40 9 10 57 85 107 167 89
147 128 242 183 444 11 41 21 58 35 62 20 5 20 0 20 -210 0 -118 4 -244 9
-281 6 -37 15 -112 22 -167 14 -122 53 -255 75 -255 62 0 214 150 214 212 0 7
-27 51 -59 98 -96 139 -121 196 -121 275 0 95 36 294 71 395 40 116 62 289 63
495 1 195 -9 239 -87 376 l-44 76 64 199 c36 109 111 341 168 514 117 357 135
432 135 560 0 134 -42 243 -124 319 -33 31 -33 41 3 41 15 0 49 3 75 6 44 6
46 8 46 39 0 84 6 91 99 130 153 64 131 40 390 437 96 147 96 138 14 261 -55
82 -343 377 -417 427 -27 18 -92 48 -144 66 -77 27 -101 41 -125 70 l-30 36
-13 -30 c-14 -35 -66 -66 -93 -57 -13 4 -22 22 -29 58 -6 28 -9 53 -8 54 1 1
37 -3 81 -9 235 -30 421 35 482 169 30 64 27 82 -27 174 -54 91 -66 99 -75 52
-10 -53 -14 -57 -36 -29 -50 64 -70 152 -84 371 -21 322 -121 571 -258 641
-150 78 -415 44 -458 -58 -7 -18 -19 -28 -33 -28 -32 -1 -128 -43 -169 -74
-22 -17 -49 -54 -68 -92 -28 -57 -32 -74 -32 -147 1 -66 6 -97 27 -148 14 -36
26 -75 26 -87 0 -36 -117 -371 -156 -445 -42 -82 -48 -143 -17 -184 24 -33
130 -87 209 -108 47 -12 78 -13 168 -5 61 5 117 10 124 10 7 0 12 -12 12 -28
0 -43 -20 -61 -77 -72 -72 -13 -142 -51 -187 -100 -21 -23 -39 -40 -41 -38 -2
1 -39 57 -82 123 -190 288 -265 351 -498 416 -60 16 -115 35 -123 41 -24 20
-63 107 -83 186 -27 105 -28 102 34 102 74 0 136 33 162 85 18 37 19 68 23
397 l4 357 44 46 c130 135 133 299 9 419 -71 70 -171 99 -285 85z m-3360 -61
c-19 -5 -77 -25 -129 -44 -108 -39 -130 -43 -81 -12 66 41 143 68 195 67 l50
-1 -35 -10z m3505 -284 c22 -9 43 -52 46 -99 1 -22 2 -187 1 -367 l-2 -327
-27 25 c-14 13 -43 29 -65 36 -34 10 -42 9 -68 -10 -36 -27 -70 -28 -152 -2
-73 23 -82 24 -72 9 3 -6 34 -24 67 -40 58 -27 67 -28 144 -22 96 7 105 -2 36
-38 -40 -20 -50 -31 -57 -61 -9 -36 -12 -38 -50 -38 -66 0 -192 44 -267 94
-49 33 -79 46 -104 46 -30 0 -39 5 -53 31 -9 17 -36 56 -60 87 -66 87 -68 122
-7 122 25 0 40 -8 58 -30 29 -34 53 -39 61 -12 3 9 5 49 3 87 -2 58 3 81 27
138 27 64 28 72 16 115 -6 26 -14 70 -17 98 l-5 51 69 2 c91 1 172 11 179 22
3 5 -9 9 -27 9 -55 0 -27 9 34 11 31 1 57 6 57 11 0 4 8 8 18 8 9 0 40 11 67
24 48 24 116 33 150 20z m-3201 -37 c23 -56 44 -165 56 -287 14 -151 14 -151
51 -111 27 31 31 32 51 19 26 -18 39 -60 31 -100 -8 -41 -59 -81 -94 -74 -24
5 -37 -4 -92 -58 -76 -77 -113 -90 -238 -84 -105 5 -179 37 -237 103 l-39 45
-33 -17 c-47 -23 -80 -9 -107 47 -14 26 -23 63 -23 88 l0 44 39 -31 c21 -17
44 -31 50 -31 20 0 31 39 31 107 0 79 26 248 41 272 9 14 10 14 5 -1 -8 -25
29 -32 138 -25 169 12 408 68 358 85 -7 2 -19 -2 -28 -9 -11 -9 -18 -9 -26 -1
-7 7 -19 12 -27 12 -10 0 -12 -3 -6 -8 6 -4 11 -13 13 -19 2 -15 -30 -16 -98
-4 -37 7 -40 9 -15 11 17 1 59 14 95 30 36 15 71 28 77 29 7 1 19 -14 27 -32z
m1245 6 c68 -18 200 -84 264 -130 30 -22 92 -49 170 -75 140 -46 228 -89 262
-130 33 -39 53 -117 61 -231 9 -136 -5 -198 -64 -271 l-47 -57 -8 32 c-9 36
-26 53 -73 74 -54 25 -145 152 -178 251 -9 27 -23 87 -31 133 -8 46 -22 100
-32 120 -18 36 -78 84 -97 78 -20 -7 -14 -23 17 -42 30 -19 85 -110 73 -122
-3 -3 -15 14 -26 38 -11 24 -17 33 -14 19 5 -20 4 -23 -7 -12 -23 21 -70 13
-137 -24 -76 -43 -136 -48 -219 -20 -95 32 -194 129 -209 206 -4 16 -10 30
-15 30 -16 0 -9 -65 11 -104 10 -22 17 -43 13 -49 -3 -6 -1 -7 4 -4 6 4 30
-11 54 -33 42 -39 43 -40 18 -40 -31 0 -88 52 -113 104 -9 20 -19 57 -22 84
-5 42 -2 53 27 97 67 98 162 121 318 78z m-1406 -60 c-7 -2 -21 -2 -30 0 -10
3 -4 5 12 5 17 0 24 -2 18 -5z m1073 -280 c31 -41 18 -43 -14 -3 -13 16 -25
47 -28 67 l-4 38 11 -35 c6 -19 22 -50 35 -67z m-2955 7 c9 -35 17 -49 26 -45
7 3 19 8 27 11 16 6 24 -23 61 -240 54 -309 29 -437 -109 -564 -86 -78 -194
-108 -290 -80 -100 29 -249 147 -287 226 -14 29 -18 31 -29 17 -7 -8 -24 -15
-39 -15 -21 0 -33 12 -63 58 -46 72 -66 124 -50 130 7 2 12 10 12 19 0 10 -6
12 -20 8 -15 -5 -21 0 -26 20 -7 29 10 55 35 55 20 0 47 -27 86 -87 55 -84 69
-39 40 124 -8 46 -24 101 -35 123 -34 67 -31 72 83 129 101 50 135 74 175 126
18 23 24 25 43 14 26 -13 223 -7 274 10 62 20 72 15 86 -39z m-304 34 c-3 -3
-12 -4 -19 -1 -8 3 -5 6 6 6 11 1 17 -2 13 -5z m3867 -66 c32 -29 40 -46 62
-127 15 -59 41 -123 71 -175 43 -76 47 -87 52 -171 8 -126 45 -180 78 -115 13
27 1 60 -22 60 -20 0 -28 17 -21 46 15 57 89 14 116 -65 12 -36 11 -45 -5 -80
-34 -76 -125 -143 -164 -121 -23 12 -31 4 -31 -32 0 -46 -35 -102 -97 -157
-93 -83 -136 -104 -223 -109 -72 -3 -77 -2 -135 33 -172 105 -221 182 -260
411 -29 166 -9 332 59 494 28 66 56 107 56 82 0 -7 5 -10 10 -7 6 4 18 1 27
-7 14 -11 16 -11 8 1 -6 11 -4 13 10 7 10 -3 49 -12 87 -18 83 -15 129 -5 215
46 32 20 61 35 64 36 3 0 22 -15 43 -32z m-579 -160 c-14 -29 -28 -75 -31
-101 -4 -27 -10 -45 -15 -40 -12 12 -39 178 -39 242 l0 57 55 -52 55 -52 -25
-54z m45 121 c0 -14 -17 -10 -23 5 -4 10 -1 13 9 9 7 -3 14 -9 14 -14z m1063
4 c-1 -5 4 -10 12 -10 8 0 12 3 10 6 -2 4 15 7 38 7 l42 1 -34 -14 c-44 -18
-85 -13 -89 11 -3 12 1 17 10 13 7 -2 12 -9 11 -14z m2153 -162 c-3 -4 16 -11
42 -14 28 -3 81 -23 126 -46 42 -23 97 -46 121 -52 l43 -11 7 -76 c4 -43 11
-95 16 -117 12 -58 11 -338 -2 -391 -13 -50 -55 -90 -169 -159 -51 -31 -69
-37 -118 -36 -74 0 -163 33 -213 78 -50 45 -122 150 -113 165 4 6 11 77 15
157 7 135 10 147 31 165 19 15 33 17 80 12 l58 -7 0 30 c0 28 -3 30 -45 37
-34 5 -51 2 -71 -11 -45 -30 -36 -10 17 35 50 42 125 147 153 215 8 19 18 35
21 35 3 0 4 -4 1 -9z m-8072 -121 c2 -22 6 -43 10 -47 10 -10 7 -35 -4 -28 -5
3 -10 2 -10 -4 0 -5 -3 -18 -6 -28 -6 -16 -5 -16 9 2 16 19 16 19 17 -12 0
-40 -40 -89 -81 -98 -37 -8 -45 -2 -24 18 34 35 54 104 57 203 2 89 4 94 15
65 7 -17 15 -49 17 -71z m126 -45 l72 -90 -31 -8 c-41 -10 -43 -43 -3 -49 34
-4 64 1 58 11 -3 4 16 -3 43 -15 l47 -23 13 -120 c11 -112 11 -125 -10 -212
-26 -111 -32 -127 -84 -207 -71 -111 -174 -135 -338 -79 -42 15 -84 27 -92 27
-8 0 -15 5 -15 11 0 5 -4 8 -9 5 -12 -8 -42 4 -36 14 3 5 -3 6 -12 4 -21 -6
-102 71 -88 83 4 5 10 2 12 -5 15 -40 70 -59 60 -20 -4 13 0 26 8 32 13 10 12
21 -5 86 -11 41 -20 85 -20 97 0 12 -5 25 -10 28 -6 4 -9 1 -8 -7 2 -7 -4 -12
-12 -11 -12 2 -17 -7 -18 -34 -2 -21 -5 -39 -7 -41 -8 -8 -45 20 -39 30 4 7 2
8 -5 4 -9 -6 -9 -11 0 -22 10 -13 6 -18 -13 -15 -5 0 -8 -4 -8 -10 0 -8 -4 -8
-15 1 -12 10 -10 16 18 38 18 15 34 29 37 32 14 16 70 50 70 43 0 -4 18 12 41
37 22 24 43 40 47 35 4 -6 33 -28 65 -49 64 -43 85 -42 98 5 24 84 -2 139 -66
139 -19 0 -35 4 -35 8 0 17 25 32 53 32 54 0 113 38 142 92 25 46 27 56 21
130 -3 44 -9 85 -13 92 -12 23 16 -10 87 -99z m3624 -52 c-36 -48 -52 -52 -80
-19 -14 16 -22 32 -17 37 7 7 103 17 112 11 3 -1 -4 -14 -15 -29z m2071 -170
c-28 -191 -179 -367 -239 -281 -27 37 -20 62 23 86 54 31 94 74 125 137 15 30
33 55 41 55 8 0 22 11 31 25 23 36 27 31 19 -22z m-1971 -160 l6 -58 -46 -19
c-36 -15 -54 -31 -77 -68 -23 -37 -33 -46 -43 -37 -8 6 -37 16 -66 23 -59 13
-54 2 -71 157 l-7 55 60 -4 c71 -5 142 11 190 43 l35 22 6 -28 c4 -16 9 -54
13 -86z m4783 60 c-3 -10 -5 -2 -5 17 0 19 2 27 5 18 2 -10 2 -26 0 -35z
m-1736 -28 c4 -33 10 -84 14 -112 7 -49 5 -58 -34 -135 -22 -46 -47 -106 -54
-135 l-13 -52 -31 57 c-17 31 -36 84 -43 117 -7 33 -19 72 -26 87 -13 24 -30
99 -48 204 l-5 32 117 -2 117 -1 6 -60z m-7063 10 c-12 -27 -23 -31 -33 -15
-8 13 13 40 31 40 11 0 11 -5 2 -25z m1543 -153 c30 -17 94 -44 142 -60 49
-17 91 -32 94 -35 8 -9 -24 -38 -39 -36 -7 1 -26 0 -43 -1 l-30 -2 30 -8 c17
-4 54 -14 82 -23 49 -15 53 -15 63 1 24 42 6 -10 -35 -100 -25 -54 -48 -112
-52 -129 l-6 -30 -101 99 c-55 54 -117 109 -136 122 -60 41 -60 42 -78 217
l-8 72 32 -28 c17 -15 55 -42 85 -59z m2619 -63 c0 -21 -29 -2 -65 40 -19 23
-18 23 23 -4 23 -15 42 -32 42 -36z m2681 19 c10 -38 8 -51 -12 -110 -13 -38
-27 -68 -31 -68 -9 0 -68 85 -68 98 0 4 12 19 26 33 14 13 34 38 45 56 12 18
22 33 24 33 3 0 9 -19 16 -42z m-7075 -14 c-9 -9 -14 -19 -11 -22 3 -4 10 0
15 8 6 9 10 10 10 3 0 -10 -26 -43 -34 -43 -10 0 2 57 14 67 21 16 26 7 6 -13z
m7403 -83 c6 -19 11 -48 11 -65 l0 -31 -28 34 c-15 19 -39 55 -54 81 -26 43
-26 48 -12 69 l16 22 28 -38 c15 -21 32 -53 39 -72z m-7439 77 c0 -6 -7 -7
-16 -4 -9 3 -18 6 -20 6 -3 0 -3 4 1 10 7 11 35 2 35 -12z m2129 -25 c-1 -37
-1 -37 -8 -8 -7 28 -5 45 5 45 2 0 3 -17 3 -37z m2253 14 l25 -13 -22 -16
c-12 -9 -37 -45 -55 -80 l-33 -63 -27 25 -28 25 39 43 c22 23 45 53 51 67 13
29 17 30 50 12z m-112 -26 c-10 -20 -30 -37 -30 -27 0 6 33 46 38 46 1 0 -2
-9 -8 -19z m437 -14 c40 -21 161 -193 185 -262 21 -61 22 -115 3 -178 -16 -53
-42 -102 -30 -57 13 48 18 191 7 202 -7 7 -12 -7 -16 -44 -4 -29 -11 -73 -16
-98 -5 -25 -16 -89 -25 -142 -16 -91 -20 -102 -71 -170 -87 -117 -73 -108
-174 -108 l-90 0 0 48 c0 74 -103 464 -145 546 l-34 68 21 41 c30 59 68 117
97 150 l26 29 115 -4 c84 -3 124 -8 147 -21z m-4547 -20 c0 -5 -4 -5 -10 -2
-5 3 -10 14 -10 23 0 15 2 15 10 2 5 -8 10 -19 10 -23z m3756 8 c66 -29 134
-76 222 -154 l63 -55 -25 -19 c-55 -40 -55 -80 4 -342 16 -71 32 -154 36 -182
l7 -53 -39 0 c-136 2 -408 46 -441 72 -6 5 -24 40 -38 78 -15 38 -44 89 -66
113 -42 48 -59 105 -59 194 0 31 -4 43 -12 40 -15 -4 -17 -59 -5 -127 l8 -45
-35 35 c-22 20 -36 28 -36 19 0 -7 17 -30 36 -49 19 -19 42 -50 51 -68 9 -18
35 -54 58 -80 l43 -48 -97 4 c-87 3 -98 2 -118 -17 -18 -17 -23 -33 -23 -74 1
-68 17 -87 110 -131 94 -45 136 -46 219 -5 50 25 63 37 68 60 6 32 15 34 81
19 23 -6 98 -15 165 -20 116 -9 417 -49 426 -57 21 -17 -155 -43 -290 -43 -78
0 -130 -5 -161 -15 -48 -17 -105 -65 -118 -101 -8 -19 -19 -22 -107 -28 -130
-9 -169 -16 -151 -27 7 -5 68 -9 136 -9 l122 0 -22 -22 -23 -23 21 -3 c22 -3
34 -27 34 -69 0 -33 45 -63 94 -63 22 0 81 9 130 20 50 11 91 20 93 20 2 0 3
-11 3 -25 0 -13 5 -36 12 -50 8 -19 8 -31 0 -48 -6 -12 -14 -80 -18 -152 l-6
-130 -74 -24 c-100 -32 -209 -41 -416 -37 l-173 4 1 26 c0 14 1 89 2 166 l2
140 48 0 c47 1 47 1 20 15 -15 8 -62 20 -105 25 -136 18 -218 50 -127 50 27 0
72 6 101 14 28 8 106 20 172 27 76 8 120 17 118 23 -6 18 -151 12 -287 -12
-286 -49 -305 -50 -315 -24 -15 38 -54 295 -66 430 -6 79 -9 192 -6 250 6 95
42 282 66 337 5 11 13 32 19 47 16 39 66 61 251 108 90 23 204 59 255 80 50
21 94 38 98 39 4 0 33 -10 64 -24z m3072 -58 c31 -49 54 -87 59 -96 2 -2 9 2
17 9 20 16 67 -12 130 -80 l46 -49 0 -129 0 -129 -102 -6 c-57 -4 -125 -10
-151 -13 l-48 -7 7 40 c12 77 -39 88 -161 33 -90 -40 -143 -76 -160 -110 -14
-28 -14 -32 2 -56 16 -23 23 -24 71 -19 49 5 52 4 52 -17 0 -28 11 -45 30 -50
11 -2 14 9 15 47 l0 49 88 28 c112 34 265 52 387 45 83 -5 353 -52 508 -88
l53 -13 -138 -46 c-76 -26 -210 -79 -298 -119 -88 -41 -173 -78 -188 -83 -15
-6 -60 -27 -100 -47 -40 -21 -112 -50 -162 -65 -49 -16 -126 -42 -170 -58
-126 -47 -218 -44 -278 10 -21 19 -61 92 -51 92 4 0 0 8 -8 18 -9 9 -26 37
-38 62 -17 34 -19 41 -6 31 20 -17 21 -8 1 13 -15 15 -11 46 7 46 5 0 6 -5 2
-12 -4 -7 -3 -8 5 -4 6 4 9 11 6 16 -3 5 3 23 13 40 l19 31 17 -43 c9 -24 26
-54 37 -68 16 -20 15 -15 -6 28 -14 30 -33 90 -41 135 -10 57 -24 98 -48 137
-56 93 -58 97 -45 122 35 65 251 297 304 326 28 16 257 97 280 100 6 1 25 -22
43 -51z m597 23 c93 -25 188 -69 227 -104 35 -31 162 -194 227 -291 60 -88 87
-141 154 -295 54 -127 61 -173 33 -232 -15 -30 -26 -40 -60 -49 -49 -14 -250
-7 -406 14 -73 10 -146 12 -240 7 -132 -6 -181 -4 -163 9 5 3 17 19 27 35 16
25 16 28 2 23 -9 -4 -16 -3 -16 1 0 7 29 24 146 89 88 48 256 109 375 136
l102 23 -52 23 c-28 12 -81 25 -116 28 l-65 6 0 41 c1 57 65 307 72 279 3 -11
16 -27 29 -33 20 -11 19 -7 -10 29 -36 45 -61 53 -61 19 0 -13 -12 -59 -26
-103 -14 -44 -28 -111 -31 -149 l-6 -68 -41 7 c-23 4 -84 13 -136 20 -52 7
-137 19 -187 26 l-93 13 0 31 c1 60 28 232 40 256 7 13 24 37 37 53 13 16 21
31 18 34 -13 13 -56 -25 -79 -72 l-26 -51 0 34 c0 19 14 79 31 135 l31 100 22
-29 c88 -123 136 -126 136 -10 0 35 3 46 13 42 7 -3 49 -15 92 -27z m-395
-104 c42 -50 57 -90 17 -46 -12 14 -38 37 -57 50 -19 13 -37 25 -39 26 -2 2 1
16 7 31 26 69 26 70 30 27 2 -30 14 -53 42 -88z m-3109 97 c13 -16 12 -17 -3
-4 -10 7 -18 15 -18 17 0 8 8 3 21 -13z m1789 -53 c-16 -106 -13 -135 16 -169
l25 -30 -32 -41 c-18 -22 -35 -40 -39 -40 -3 0 -19 14 -35 30 -45 47 -69 40
-147 -37 -61 -60 -68 -65 -68 -43 0 47 -22 103 -50 132 -17 16 -23 28 -15 28
25 0 55 51 55 93 0 34 2 38 15 27 8 -7 23 -9 32 -5 10 4 35 8 56 10 50 4 122
40 161 80 17 18 32 31 33 31 1 -1 -2 -31 -7 -66z m-4123 -7 c105 -81 113 -88
113 -104 0 -10 -3 -10 -12 -1 -17 17 -36 15 -68 -8 l-29 -21 -39 43 c-108 119
-112 124 -90 146 20 20 35 14 125 -55z m708 -33 l70 -18 -4 -33 c-8 -59 -6
-104 4 -109 6 -3 11 9 13 25 1 17 10 50 19 74 l16 44 78 -6 c86 -6 139 -26
212 -82 26 -20 47 -46 51 -62 4 -15 29 -65 56 -109 28 -45 56 -97 64 -116 27
-65 35 -180 24 -356 -11 -162 -10 -168 10 -209 41 -79 23 -152 -58 -235 -69
-70 -120 -88 -281 -95 -176 -8 -290 18 -359 83 -26 24 -166 85 -284 124 l-70
23 27 23 26 22 88 -24 c48 -13 92 -24 98 -23 15 1 -137 49 -156 49 -13 0 -7
18 30 81 l46 80 70 -5 c71 -5 152 -30 284 -85 97 -41 255 -91 286 -91 14 0 25
5 25 10 0 6 -10 10 -22 10 -13 0 -102 32 -198 72 -96 39 -211 83 -255 99 -90
32 -107 49 -46 49 75 0 124 38 53 41 -24 1 -22 3 13 15 l40 14 -67 -5 c-37 -3
-75 -8 -83 -11 -12 -5 -15 2 -15 30 0 20 5 36 10 36 6 0 10 5 10 11 0 5 -5 7
-11 4 -7 -5 -9 5 -7 26 l3 34 113 17 c143 21 164 15 304 -80 56 -39 117 -74
133 -78 30 -7 30 -7 12 14 -21 23 -140 104 -180 123 -21 10 -25 17 -21 39 6
26 5 26 -45 27 -28 0 -54 3 -57 6 -6 6 54 24 99 29 15 2 29 8 30 13 4 17 -60
17 -93 0 -45 -23 -48 -12 -13 38 44 62 115 197 103 197 -14 0 -151 -187 -174
-238 -15 -34 -24 -42 -45 -42 -14 0 -60 -9 -101 -20 -41 -11 -76 -20 -77 -20
-2 0 -3 10 -3 23 0 31 -22 104 -82 274 l-50 141 25 34 c32 43 63 105 71 145
l7 31 82 -30 c45 -16 114 -38 152 -48z m-272 28 c-10 -21 -10 -21 -9 9 1 19 5
28 10 23 6 -6 5 -18 -1 -32z m-500 -111 c55 -51 65 -57 85 -47 58 26 125 4
208 -66 l55 -47 -6 -146 c-3 -80 -8 -164 -11 -187 l-5 -41 -67 -16 c-37 -8
-85 -20 -107 -26 -46 -12 -179 -13 -248 -2 -32 5 -58 18 -78 37 -44 43 -154
213 -190 296 -56 128 -85 127 -34 -1 33 -86 95 -199 145 -264 60 -80 108 -110
199 -123 71 -10 74 -12 48 -23 -38 -15 -81 -14 -123 4 -48 20 -142 94 -202
159 -28 31 -53 56 -56 56 -3 0 -6 -13 -6 -28 0 -44 148 -179 246 -224 41 -19
48 -26 38 -36 -24 -22 -55 -146 -61 -243 -7 -119 5 -161 55 -194 70 -45 133
-42 250 11 29 13 63 24 75 25 21 0 21 1 2 9 -18 7 -16 10 17 24 21 9 64 16 96
16 68 0 71 -3 97 -117 20 -83 13 -169 -18 -233 l-22 -45 -100 -8 c-55 -4 -169
-4 -252 -1 -137 5 -153 8 -153 24 0 14 12 18 71 22 48 4 79 12 97 25 34 26 44
51 11 29 -24 -15 -177 -46 -228 -46 -15 0 -50 7 -79 15 -44 13 -59 25 -110 88
-144 178 -248 378 -293 562 -17 72 -36 146 -42 165 -17 55 -10 214 14 301 23
84 74 159 110 159 10 0 19 4 19 8 0 13 47 32 76 32 14 0 23 4 20 9 -7 11 52
33 65 25 5 -3 9 -1 9 5 0 5 15 12 33 16 17 4 61 23 97 43 36 20 82 44 102 54
20 9 43 25 49 36 12 20 13 20 26 -6 8 -15 42 -53 76 -85z m479 58 c-3 -5 -7
-4 -10 3 -2 7 -8 10 -13 6 -10 -6 -13 9 -3 19 9 9 33 -16 26 -28z m3465 19
c-3 -3 -12 -4 -19 -1 -8 3 -5 6 6 6 11 1 17 -2 13 -5z m3593 2 c0 -3 -4 -8
-10 -11 -5 -3 -10 -1 -10 4 0 6 5 11 10 11 6 0 10 -2 10 -4z m-7080 -55 c-12
-24 -50 -56 -50 -43 0 7 5 12 10 12 6 0 10 5 10 11 0 5 -5 7 -12 3 -7 -4 -8
-3 -4 5 4 6 12 9 17 5 6 -3 7 7 4 25 -5 30 -5 30 14 14 14 -11 17 -21 11 -32z
m7031 16 c-10 -9 -11 -8 -5 6 3 10 9 15 12 12 3 -3 0 -11 -7 -18z m-442 -164
c25 -74 25 -73 8 -73 -18 0 -138 -77 -154 -99 -11 -15 -12 -15 -13 1 0 9 -8
19 -17 22 -10 3 -31 16 -46 29 l-28 22 12 120 13 120 78 0 c61 0 81 4 95 18
17 17 18 16 24 -40 4 -32 16 -86 28 -120z m416 147 c-3 -5 -14 -10 -23 -9 -14
0 -13 2 3 9 27 11 27 11 20 0z m-210 -22 c5 4 5 2 1 -5 -8 -14 -36 -6 -36 9 0
7 5 6 13 -1 8 -6 18 -7 22 -3z m-8517 -48 c85 -33 100 -47 104 -96 2 -35 -11
-60 -50 -98 l-30 -28 -57 53 c-71 68 -85 94 -85 164 0 49 2 54 18 46 9 -5 54
-24 100 -41z m5099 -47 c32 -44 53 -90 53 -116 0 -13 -17 -60 -37 -103 -20
-43 -51 -124 -69 -179 -18 -55 -33 -92 -33 -82 -1 10 -12 29 -26 42 -44 45
-136 28 -188 -34 l-27 -32 -57 61 c-31 34 -81 76 -111 92 l-53 30 7 47 c11 78
75 184 128 213 19 11 340 85 377 87 8 1 24 -11 36 -26z m533 -24 c47 -5 117
-16 157 -25 l72 -15 17 -52 c9 -29 30 -78 45 -110 31 -64 32 -62 -50 -72 -56
-6 -159 -48 -212 -86 -46 -33 -89 -97 -89 -134 0 -17 -3 -34 -6 -38 -4 -3 -29
5 -57 20 -41 20 -60 24 -97 20 -67 -8 -94 -24 -125 -73 -27 -42 -30 -44 -69
-40 -23 3 -67 8 -98 11 -51 6 -59 9 -64 32 -9 34 3 135 19 176 14 33 110 147
224 266 59 61 63 64 88 53 41 -19 51 -15 90 39 27 37 41 49 53 44 9 -3 55 -11
102 -16z m-5800 -4 c0 -9 -89 -131 -107 -145 -10 -8 -29 -20 -43 -27 l-25 -12
24 0 c23 -1 91 59 91 80 0 21 29 4 141 -86 73 -58 119 -103 119 -113 0 -23
-27 -209 -41 -282 -18 -96 -11 -90 -83 -70 -121 34 -139 55 -101 122 14 23 25
46 25 51 0 18 -20 3 -44 -34 -22 -32 -31 -39 -48 -33 -12 3 -43 7 -70 7 -30 1
-47 5 -44 11 2 6 11 28 20 49 26 60 -1 43 -34 -22 -52 -104 -50 -208 5 -233
21 -9 41 -6 129 24 103 36 104 36 172 23 38 -8 106 -27 151 -44 98 -36 276
-71 388 -76 44 -1 98 -9 120 -17 40 -13 40 -14 39 -63 0 -82 -10 -104 -52
-122 -57 -24 -144 -19 -277 15 -66 17 -140 33 -164 36 -24 3 -90 28 -147 56
-56 27 -109 50 -117 50 -7 0 -24 -12 -38 -27 l-24 -26 30 17 c30 17 31 17 95
-21 36 -21 90 -50 120 -63 30 -13 60 -28 65 -33 15 -13 -17 -32 -89 -51 l-64
-18 -111 62 c-103 58 -113 62 -129 47 -50 -46 -175 -63 -221 -31 -25 18 -60
89 -81 167 -14 53 -10 130 15 268 9 46 22 144 31 217 8 73 19 144 24 158 12
31 171 111 239 120 39 5 50 12 69 40 19 29 42 45 42 29z m5515 -22 c0 -6 -36
-49 -80 -95 -44 -46 -100 -105 -123 -132 -24 -26 -45 -46 -47 -44 -2 2 17 39
42 83 69 118 208 244 208 188z m-5447 -35 c20 -23 59 -59 87 -81 l50 -39 46
50 c34 38 49 48 58 39 17 -17 14 -25 -41 -107 l-53 -78 -80 77 c-44 42 -93 86
-109 98 -28 19 -29 22 -17 52 8 17 15 31 17 31 2 0 21 -19 42 -42z m8597 -8
c10 -11 47 -29 83 -40 35 -11 91 -35 125 -52 143 -76 436 -388 493 -524 17
-40 14 -48 -74 -184 -30 -47 -88 -135 -127 -196 -40 -61 -88 -123 -106 -137
-38 -28 -215 -102 -272 -112 -36 -7 -37 -6 -37 23 0 17 14 50 33 78 25 38 46
56 94 79 35 17 70 40 78 52 38 54 68 131 81 206 8 45 18 83 23 85 8 3 8 11 -4
84 -7 44 -68 126 -126 168 -47 33 -133 64 -236 83 -114 22 -86 2 39 -27 93
-22 120 -33 164 -66 66 -50 103 -98 125 -162 16 -47 16 -54 -2 -136 -27 -126
-72 -209 -134 -249 -129 -82 -155 -115 -155 -200 0 -62 -49 -37 -98 50 -28 49
-28 50 8 43 17 -3 44 -9 60 -12 54 -10 31 12 -26 26 -47 12 -61 20 -90 58 -34
45 -41 70 -25 87 4 6 17 34 27 64 14 40 30 62 65 90 81 63 174 220 193 324 8
43 -10 52 -20 10 -12 -47 -92 -200 -125 -238 -18 -20 -52 -50 -75 -66 -45 -31
-172 -69 -231 -69 -33 0 -33 0 -33 48 0 34 -7 58 -25 84 -14 20 -26 45 -28 55
-1 10 -5 23 -9 28 -18 30 -28 98 -19 131 16 58 133 243 166 264 17 10 48 37
70 60 l40 41 -68 -45 c-66 -44 -71 -46 -142 -46 -41 0 -77 4 -80 10 -6 10 120
114 212 175 30 20 64 35 81 35 16 0 40 9 53 20 30 24 32 24 54 0z m-8288 -32
c-3 -8 -6 -5 -6 6 -1 11 2 17 5 13 3 -3 4 -12 1 -19z m4303 -73 c0 -63 -4 -95
-11 -95 -6 0 -9 7 -5 15 3 8 0 14 -7 12 -7 -1 -10 5 -8 13 2 8 9 45 14 83 5
37 11 67 13 67 2 0 4 -43 4 -95z m3449 20 c7 -22 27 -55 45 -74 32 -35 19 -34
-23 3 l-24 21 14 -22 c14 -24 65 -50 76 -39 4 3 -3 16 -14 29 -25 27 -53 81
-53 102 0 26 39 17 90 -20 26 -19 54 -35 61 -35 8 0 -12 -26 -43 -57 -62 -63
-218 -253 -218 -266 0 -5 17 5 38 22 42 35 142 150 142 164 0 5 10 7 23 4 12
-3 42 -11 66 -17 32 -8 47 -8 57 1 31 25 20 0 -46 -108 -96 -160 -101 -212
-30 -353 21 -41 41 -85 45 -98 l7 -24 -94 7 c-183 13 -268 24 -294 37 -27 13
-94 119 -94 148 0 11 17 20 58 28 57 12 59 14 80 60 47 105 42 138 -43 331
l-37 83 19 27 c19 27 164 104 173 93 3 -4 12 -25 19 -47z m-7603 -43 c50 -11
70 -2 79 38 l6 29 55 -27 c34 -16 53 -31 50 -39 -15 -38 -28 -154 -24 -208 l5
-62 -59 -11 c-115 -21 -236 -117 -265 -209 -9 -29 -21 -53 -27 -52 -6 0 -47
13 -91 28 -72 25 -80 30 -77 52 10 82 63 362 71 377 5 9 38 46 73 82 l63 65
50 -27 c28 -15 69 -31 91 -36z m6134 21 c0 -16 -4 -33 -8 -39 -11 -17 -174
-83 -204 -82 -54 1 -25 32 49 54 l48 14 -55 -5 c-54 -5 -55 -4 -31 13 20 14
170 70 194 72 4 0 7 -12 7 -27z m-1984 -131 c-7 -6 -76 38 -76 49 0 5 18 -3
40 -17 22 -15 38 -29 36 -32z m2 -34 c17 -15 62 -102 62 -122 0 -8 14 -54 30
-103 40 -116 51 -204 36 -280 -21 -98 -77 -243 -99 -255 -25 -13 -163 -4 -337
22 -164 24 -200 29 -227 30 -20 0 -23 5 -23 36 0 30 3 35 17 30 9 -4 85 -12
169 -18 l153 -12 26 24 c36 33 35 98 -2 147 -32 42 -29 50 53 116 92 73 95
114 11 143 -38 13 -38 30 -1 87 28 42 56 48 119 21 51 -21 68 -12 25 14 -55
34 -91 37 -146 11 -27 -13 -53 -25 -59 -28 -5 -2 8 18 28 45 21 27 47 68 59
91 l21 42 35 -15 c20 -8 42 -20 50 -26z m1472 32 c0 -6 -6 -12 -12 -14 -7 -2
-56 -13 -108 -26 -52 -12 -125 -37 -162 -55 -38 -18 -68 -30 -68 -26 0 9 60
55 98 75 73 38 252 70 252 46z m3 -62 c-8 -44 -29 -84 -68 -133 -18 -22 -59
-83 -90 -135 -77 -128 -139 -212 -181 -249 -55 -49 -92 -44 -195 27 -74 52
-146 87 -215 107 -24 6 -34 31 -34 83 0 20 5 32 14 32 43 0 126 -24 202 -60
90 -42 121 -46 135 -20 4 8 18 55 31 104 12 49 32 105 43 125 29 51 129 106
236 130 124 28 130 28 122 -11z m-1383 5 c14 -9 52 -43 85 -74 33 -32 89 -79
124 -106 70 -52 85 -73 52 -73 -11 0 -51 -11 -89 -25 -38 -14 -73 -25 -78 -25
-5 0 -17 26 -27 58 -10 32 -38 102 -62 156 -25 55 -45 101 -45 103 0 8 17 2
40 -14z m-1322 -29 c35 -39 28 -51 -30 -59 -29 -4 -70 -11 -90 -16 -29 -8 -45
-6 -68 6 -43 22 -38 60 10 87 50 28 145 18 178 -18z m-1496 -106 c-3 -88 -5
-94 -32 -118 -16 -14 -52 -61 -81 -105 -29 -44 -91 -120 -138 -169 -100 -103
-160 -136 -261 -143 -56 -4 -69 -2 -92 16 -16 13 -32 40 -39 64 -12 43 -6 149
10 190 5 12 17 47 26 77 26 89 123 160 281 206 64 18 289 71 314 73 13 1 14
-14 12 -91z m3181 64 c16 -17 49 -86 61 -129 6 -19 2 -22 -46 -28 -29 -3 -62
-9 -72 -12 -15 -4 -18 -2 -12 12 5 13 -6 29 -39 59 -25 23 -45 47 -45 53 0 6
14 23 31 37 37 32 97 35 122 8z m-1584 -31 c29 -18 2 -37 -72 -50 -72 -13
-171 -8 -182 9 -2 4 21 10 53 13 31 3 75 12 97 20 47 17 85 20 104 8z m-2879
-83 c0 -51 -9 -90 -19 -83 -4 2 -7 -4 -7 -13 1 -44 -18 -134 -30 -139 -13 -5
-161 23 -201 38 -20 7 -21 11 -12 46 19 71 56 110 142 153 43 22 90 40 103 40
22 0 24 -4 24 -42z m99 -202 c12 -33 20 -61 18 -63 -2 -1 -31 7 -66 18 -48 16
-61 25 -56 38 5 16 34 204 36 231 0 8 11 -25 24 -75 13 -49 33 -117 44 -149z
m2751 226 c0 -24 -113 -40 -155 -22 -14 6 2 9 50 9 39 1 77 6 85 11 18 12 20
12 20 2z m2151 -15 c19 -12 35 -33 37 -45 3 -19 -1 -22 -27 -22 -37 0 -40 -16
-6 -32 25 -11 35 -51 16 -62 -4 -3 -47 15 -94 39 -47 25 -94 45 -106 45 -30 0
-33 15 -9 45 44 56 131 71 189 32z m-5757 -53 c30 -30 33 -44 10 -44 -8 0 -13
4 -9 9 3 5 1 13 -5 16 -6 4 -9 1 -8 -7 3 -15 -33 -16 -98 -2 -38 8 -41 11 -33
32 7 19 16 22 62 22 45 0 59 -4 81 -26z m7200 -18 c-7 -17 -37 -26 -89 -25
-30 0 -35 2 -20 8 11 5 25 6 32 4 6 -3 24 2 40 11 35 19 44 20 37 2z m-2546
-12 c35 -10 26 -32 -25 -64 -74 -45 -92 -59 -109 -85 -15 -23 -14 -28 16 -94
18 -39 30 -77 27 -86 -7 -18 -59 -19 -264 -6 -148 10 -179 19 -118 37 56 15
63 46 41 175 -10 55 -15 103 -12 106 3 4 34 12 69 19 62 14 327 12 375 -2z
m-475 -91 c4 -49 9 -102 13 -119 l6 -30 -140 -32 c-170 -39 -191 -39 -226 -7
-22 20 -26 33 -26 76 0 86 47 163 115 187 17 6 80 11 141 11 l111 1 6 -87z
m1237 27 c0 -69 7 -65 -129 -75 -97 -7 -161 -19 -206 -41 -28 -13 -36 -12 -85
4 -52 18 -55 21 -55 53 0 32 3 35 60 58 86 35 216 59 323 60 l92 1 0 -60z
m-5432 35 c69 0 81 -9 26 -20 -43 -8 -109 2 -144 21 -24 13 -23 14 15 7 22 -5
68 -8 103 -8z m7012 -15 c0 -5 -4 -10 -10 -10 -5 0 -10 5 -10 10 0 6 5 10 10
10 6 0 10 -4 10 -10z m-20 -27 c0 -13 3 -13 15 -3 13 10 18 11 28 1 7 -7 8
-11 2 -10 -5 2 -20 -2 -32 -9 -25 -14 -57 -6 -46 12 4 6 8 14 9 19 1 4 2 10 3
13 2 12 21 -8 21 -23z m253 7 c17 -6 54 -4 103 5 95 19 152 19 246 1 41 -8
111 -18 157 -21 65 -6 81 -11 77 -22 -4 -9 -2 -11 7 -6 22 14 47 13 47 -1 0
-17 -16 -30 -23 -19 -2 5 -3 3 -1 -3 5 -22 -27 -56 -47 -51 -11 3 -17 1 -13
-4 13 -21 -126 -8 -227 21 -57 16 -115 30 -129 30 -19 0 -21 3 -11 9 11 7 9
10 -8 13 l-22 3 22 13 c11 8 18 9 14 3 -4 -7 7 -11 32 -11 28 0 34 -3 23 -10
-21 -14 -11 -12 35 6 35 13 36 14 10 11 -16 -2 -43 -1 -60 3 l-30 8 35 2 c27
2 22 4 -25 11 -33 4 -87 4 -120 -1 -37 -6 -76 -6 -100 0 -22 5 -59 10 -83 10
-25 0 -41 4 -37 10 6 10 81 4 128 -10z m170 -17 c-7 -2 -19 -2 -25 0 -7 3 -2
5 12 5 14 0 19 -2 13 -5z m-73 -12 c0 -10 -26 -9 -36 2 -4 4 2 7 14 7 12 0 22
-4 22 -9z m-309 -8 c-11 -5 -11 -7 0 -15 11 -8 11 -9 -1 -5 -9 3 -23 -1 -32
-7 -14 -10 -12 -12 16 -13 17 0 62 -10 100 -22 68 -21 131 -28 123 -13 -3 4
-1 16 4 27 10 25 11 -137 3 -263 l-7 -91 -38 2 c-21 1 -41 6 -45 10 -4 4 -16
7 -27 7 -16 0 -17 -3 -7 -15 11 -13 4 -15 -51 -15 -35 0 -102 7 -149 15 -47 8
-109 15 -137 15 l-53 0 0 146 0 146 25 -4 c13 -3 22 -1 19 3 -3 5 9 9 26 9 45
0 149 38 183 66 16 13 36 24 45 23 12 0 13 -2 3 -6z m897 -43 c6 -21 28 -73
47 -114 19 -41 35 -78 35 -81 0 -4 19 -38 41 -76 39 -65 41 -73 36 -122 -7
-55 -72 -257 -127 -392 -84 -206 -88 -318 -24 -700 45 -265 125 -561 196 -715
27 -61 29 -74 32 -215 2 -82 9 -175 15 -205 14 -67 16 -463 2 -575 -5 -44 -42
-242 -83 -440 l-74 -360 -27 2 c-90 6 -255 133 -306 235 l-31 61 0 471 c1 574
14 1151 34 1409 31 404 41 621 40 892 0 246 -2 285 -18 325 -12 29 -20 81 -23
150 -2 57 -10 113 -16 125 -6 11 -14 70 -17 130 l-5 110 65 0 c82 0 117 17
155 77 17 26 32 47 35 47 3 1 11 -17 18 -39z m-578 -12 c20 0 142 -25 205 -42
l50 -13 7 -79 c4 -43 9 -100 11 -126 l4 -47 -71 -17 c-71 -18 -257 -26 -271
-12 -4 4 -4 75 0 159 4 83 11 146 15 140 4 -7 33 -15 66 -18 55 -6 58 -5 42
11 -11 11 -25 15 -41 10 -14 -3 -28 -1 -31 5 -4 6 -16 11 -27 11 -11 0 -19 7
-19 16 0 12 6 15 23 9 12 -3 29 -7 37 -7z m-1965 -18 c3 -5 11 -10 16 -10 6 0
8 4 5 9 -10 16 97 9 153 -11 31 -10 64 -22 74 -25 30 -9 13 -28 -26 -27 -179
2 -202 4 -183 19 18 13 17 14 -5 19 -58 12 -109 14 -109 4 0 -7 -5 -7 -13 1
-10 8 -23 6 -52 -9 -41 -21 -86 -25 -120 -10 -16 6 -17 9 -5 13 47 17 125 28
169 25 28 -3 51 -1 51 4 0 11 38 10 45 -2z m-345 -56 c75 -24 93 -26 178 -20
l94 7 -20 -21 c-11 -12 -22 -35 -26 -51 -3 -16 -13 -54 -22 -84 -19 -66 -26
-67 -129 -27 -147 59 -191 102 -180 176 4 25 11 46 15 46 4 0 44 -12 90 -26z
m369 15 c-17 -11 -66 -12 -72 -1 -3 4 15 8 40 8 29 1 40 -2 32 -7z m-4381
-233 c97 -163 157 -228 231 -250 30 -9 67 -16 82 -16 35 0 37 -9 40 -145 2
-92 -1 -118 -19 -161 -39 -97 -88 -428 -122 -834 -14 -169 -23 -969 -13 -1157
4 -84 5 -149 2 -145 -14 15 -91 264 -119 387 -34 148 -80 306 -101 350 -8 17
-23 34 -35 39 -17 8 -34 64 -112 380 -78 313 -151 633 -218 946 -8 36 -28 112
-45 170 -17 58 -33 113 -36 123 -3 13 2 17 26 17 25 0 32 5 36 28 3 15 20 61
37 102 17 41 38 100 46 131 l16 57 36 -5 c50 -7 105 18 125 57 9 17 19 54 22
82 l6 51 20 -39 c10 -21 53 -97 95 -168z m4797 118 c38 -7 93 14 124 47 l21
23 -6 -34 c-11 -62 -25 -114 -41 -147 -17 -36 -37 -42 -219 -64 -150 -18 -243
-9 -334 31 -41 18 -76 34 -78 35 -2 2 4 15 13 28 9 14 27 54 39 89 l23 63 144
-3 c79 -2 150 1 158 6 9 7 30 -2 69 -29 30 -21 69 -41 87 -45z m-3965 20 l25
-15 -25 5 c-14 3 -31 6 -38 6 -7 0 -10 5 -7 10 8 13 15 12 45 -6z m-1378 -74
c17 0 190 -55 206 -65 11 -8 -23 -58 -45 -66 -100 -40 -206 -40 -370 2 -104
26 -135 38 -126 52 4 6 0 8 -11 4 -11 -5 -15 -3 -10 4 4 7 1 10 -7 7 -20 -7
-71 21 -63 34 4 6 3 8 -4 4 -6 -3 -26 3 -44 14 -23 14 -27 20 -15 20 23 0 77
-28 77 -40 0 -5 17 -14 38 -20 20 -5 51 -19 67 -30 43 -28 73 -25 155 17 77
39 90 54 70 78 -11 13 -8 13 23 0 20 -8 47 -15 59 -15z m4489 -67 c26 -29 58
-72 71 -95 16 -30 33 -46 56 -53 30 -10 31 -12 17 -32 -8 -12 -32 -70 -53
-130 -36 -105 -37 -112 -36 -243 1 -97 7 -162 22 -230 11 -52 32 -149 46 -215
15 -66 39 -165 56 -220 16 -55 34 -127 40 -160 19 -101 98 -360 172 -567 l70
-198 -26 -147 c-48 -275 -58 -387 -66 -738 -7 -298 -15 -419 -36 -515 l-6 -25
-29 35 c-83 98 -82 96 -65 129 9 16 16 44 16 62 0 27 -58 387 -104 644 -27
149 -29 233 -11 425 18 199 14 240 -24 240 -23 0 -22 -4 -46 220 -53 508 -215
1103 -354 1299 -32 44 -42 99 -26 132 8 15 15 37 15 49 0 11 14 47 30 79 17
32 38 90 48 130 15 61 20 71 39 71 51 0 71 17 94 80 19 52 24 59 32 43 6 -10
32 -42 58 -70z m-2669 -19 c28 -14 48 -21 45 -17 -4 5 17 6 46 2 29 -4 62 -8
74 -8 15 -1 21 -6 17 -15 -5 -13 5 -85 21 -147 6 -24 4 -26 -32 -27 -21 -1
-78 -6 -128 -11 -214 -24 -204 -24 -215 5 -13 32 -13 43 0 24 8 -12 10 -11 10
6 0 12 -7 24 -15 28 -8 3 -15 11 -15 18 0 9 3 9 10 -2 11 -18 13 -12 29 88 6
40 18 87 27 103 l15 30 31 -26 c17 -14 53 -37 80 -51z m-212 19 c0 -26 -47
-136 -62 -144 -17 -9 -18 -4 -18 65 l0 75 33 4 c17 2 35 5 40 5 4 1 7 -1 7 -5z
m2310 -28 c47 -9 140 -19 208 -22 104 -5 122 -8 122 -22 0 -26 -30 -134 -40
-147 -6 -6 -40 -14 -76 -18 -36 -4 -94 -13 -128 -20 -33 -8 -91 -17 -129 -20
l-67 -7 2 145 c2 95 6 141 13 136 6 -5 48 -16 95 -25z m4225 -39 c13 -8 39
-48 59 -88 51 -101 62 -119 69 -111 4 3 7 0 7 -9 0 -8 12 -25 27 -39 26 -22
27 -22 9 -1 -18 21 -18 24 -4 39 12 11 24 13 45 8 15 -5 32 -9 36 -9 14 -2 27
-30 27 -59 0 -28 -1 -28 -55 -26 -30 1 -55 7 -55 12 0 5 -33 44 -73 86 -40 42
-95 103 -122 136 -28 33 -53 62 -57 63 -5 2 -8 8 -8 14 0 14 66 3 95 -16z
m-14 -133 c13 -16 12 -17 -3 -4 -10 7 -18 15 -18 17 0 8 8 3 21 -13z m-1 -28
c13 -14 21 -25 18 -25 -2 0 -15 11 -28 25 -13 14 -21 25 -18 25 2 0 15 -11 28
-25z m305 -35 c-3 -5 -10 -10 -16 -10 -5 0 -9 5 -9 10 0 6 7 10 16 10 8 0 12
-4 9 -10z m-245 -6 c0 -8 -19 -13 -24 -6 -3 5 1 9 9 9 8 0 15 -2 15 -3z m27
-21 c-8 -8 11 -33 25 -33 6 0 4 8 -3 18 -13 16 -12 16 6 2 26 -18 45 -41 45
-53 0 -5 -7 -4 -15 3 -8 7 -12 17 -8 23 4 7 0 8 -12 3 -11 -4 -25 0 -36 10
-17 15 -18 34 -2 34 4 0 3 -3 0 -7z m-2746 -323 c27 -73 26 -128 -5 -290 -15
-74 -43 -236 -62 -360 -68 -427 -82 -506 -84 -465 -1 22 -6 51 -10 65 -6 17
-8 4 -5 -40 3 -45 2 -54 -4 -30 l-7 35 -8 -44 c-6 -33 -5 -46 5 -52 8 -5 9 -9
3 -9 -6 0 -9 -14 -7 -32 3 -28 2 -30 -7 -13 -7 16 -8 12 -4 -16 3 -20 0 -56
-6 -80 -21 -75 -38 -164 -33 -171 2 -5 -1 -8 -6 -8 -6 0 -11 -10 -12 -22 0
-13 -3 -18 -5 -12 -3 6 4 56 16 109 11 54 20 113 20 132 0 19 4 32 9 29 4 -3
6 6 3 20 -2 13 3 66 12 117 8 51 22 139 30 197 30 208 47 308 87 505 23 110
44 241 48 290 l7 90 8 -68 c9 -72 20 -77 29 -14 5 29 3 37 -10 37 -13 0 -14 8
-9 41 5 29 1 52 -14 86 -11 25 -20 48 -20 52 0 13 21 -26 41 -79z m-166 -1262
c-10 -46 -20 -101 -24 -123 -4 -26 -9 -36 -14 -27 -5 7 -2 33 6 60 9 26 18 70
22 97 9 68 18 102 22 88 3 -7 -3 -50 -12 -95z m-51 -282 c-3 -15 -8 -25 -11
-23 -2 3 -1 17 3 31 3 15 8 25 11 23 2 -3 1 -17 -3 -31z m-57 -68 c-3 -8 -6
-5 -6 6 -1 11 2 17 5 13 3 -3 4 -12 1 -19z m-6 -199 c-5 -30 -9 -42 -10 -28
-1 30 10 92 15 86 3 -2 0 -28 -5 -58z m-45 -39 c-4 -29 -3 -50 3 -50 5 0 7
-10 3 -22 -5 -21 -6 -21 -12 -2 -5 14 -11 3 -20 -39 -6 -32 -14 -57 -16 -54
-3 2 4 49 16 102 11 54 20 102 20 107 0 4 3 8 6 8 4 0 4 -22 0 -50z m21 -32
c-3 -7 -5 -2 -5 12 0 14 2 19 5 13 2 -7 2 -19 0 -25z m30 -35 c-3 -10 -5 -2
-5 17 0 19 2 27 5 18 2 -10 2 -26 0 -35z m-10 -45 c-3 -8 -6 -5 -6 6 -1 11 2
17 5 13 3 -3 4 -12 1 -19z m-20 -290 c-3 -8 -6 -5 -6 6 -1 11 2 17 5 13 3 -3
4 -12 1 -19z m2974 -94 c-27 -84 -61 -293 -61 -383 0 -122 33 -211 122 -330
45 -60 47 -65 34 -90 -27 -51 -158 -163 -169 -144 -31 52 -67 428 -67 698 l0
194 37 17 c20 10 55 37 77 59 23 23 42 41 44 40 2 -2 -6 -29 -17 -61z m-3064
-116 c-3 -8 -6 -5 -6 6 -1 11 2 17 5 13 3 -3 4 -12 1 -19z m72 -398 c-6 -118
-12 -225 -13 -237 -1 -28 -8 -29 -57 -1 -47 26 -51 43 -9 40 3 0 3 22 1 49 -3
43 0 51 17 55 16 5 21 19 30 87 l10 82 -4 -100 -3 -100 10 80 c6 44 7 124 4
178 -4 64 -2 97 5 97 6 0 11 33 12 83 l2 82 4 -90 c2 -49 -2 -187 -9 -305z
m-72 177 c-2 -23 -3 -1 -3 48 0 50 1 68 3 42 2 -26 2 -67 0 -90z m52 -52 c1
-16 -1 -17 -9 -5 -5 8 -9 31 -9 50 l1 35 8 -30 c4 -16 8 -39 9 -50z m-5101
-164 c53 -108 76 -191 53 -191 -21 0 -84 30 -118 56 -33 25 -95 112 -107 151
-5 17 1 23 39 38 26 9 51 26 58 36 6 10 14 19 17 19 3 0 29 -49 58 -109z
m5069 47 c-3 -7 -5 -2 -5 12 0 14 2 19 5 13 2 -7 2 -19 0 -25z m-10 -40 c-3
-8 -6 -5 -6 6 -1 11 2 17 5 13 3 -3 4 -12 1 -19z"/>
<path d="M7685 8210 c-3 -5 1 -10 9 -10 8 0 18 5 21 10 3 6 -1 10 -9 10 -8 0
-18 -4 -21 -10z"/>
<path d="M7454 7931 c-52 -32 -51 -41 6 -41 l51 0 -61 -59 c-33 -32 -60 -66
-60 -75 0 -27 33 -18 80 22 l44 39 21 -31 c24 -35 69 -56 86 -39 6 6 13 30 16
54 3 24 11 47 17 51 27 18 -92 98 -145 98 -13 0 -38 -9 -55 -19z"/>
<path d="M7793 7909 c-50 -18 -66 -94 -43 -197 8 -34 7 -49 -6 -73 -17 -34 -8
-54 19 -43 23 9 31 64 18 135 -6 34 -8 65 -6 69 3 4 23 3 46 -3 49 -12 63 1
53 48 -13 61 -37 80 -81 64z"/>
<path d="M4599 8243 c-13 -16 -12 -17 4 -4 9 7 17 15 17 17 0 8 -8 3 -21 -13z"/>
<path d="M4482 7974 c-38 -41 -40 -66 -8 -91 19 -15 21 -21 10 -31 -19 -18
-19 -92 0 -92 21 0 28 15 28 66 1 24 4 44 8 44 4 0 24 -7 45 -16 20 -8 51 -14
69 -12 27 3 31 6 28 28 -5 34 -18 48 -79 82 -29 17 -57 36 -61 44 -6 10 -15 5
-40 -22z"/>
<path d="M4182 7940 c-26 -12 -46 -29 -52 -45 -14 -37 -14 -37 25 -29 35 6 36
6 57 -45 12 -28 27 -51 34 -51 19 0 57 99 50 133 -12 61 -39 70 -114 37z"/>
<path d="M4350 7670 c0 -14 30 -40 47 -40 8 0 13 6 10 13 -2 6 -10 11 -16 10
-6 -2 -11 1 -11 6 0 5 -7 11 -15 15 -8 3 -15 1 -15 -4z"/>
<path d="M2539 7697 c-41 -27 -48 -64 -23 -119 21 -47 31 -48 40 -3 8 44 18
50 46 31 41 -29 58 -21 58 27 0 48 -6 59 -37 76 -31 16 -46 14 -84 -12z"/>
<path d="M2114 7676 c-54 -24 -81 -80 -50 -105 11 -10 25 -7 63 12 26 13 59
28 73 32 l25 7 -22 -23 c-21 -24 -26 -39 -24 -70 3 -47 84 -19 107 36 20 49
18 72 -11 100 -20 20 -34 25 -77 25 -29 -1 -67 -7 -84 -14z"/>
<path d="M2384 7520 c19 -102 29 -131 48 -141 27 -14 33 -6 15 23 -8 12 -23
48 -32 78 -21 66 -40 91 -31 40z"/>
<path d="M2535 7334 c-61 -35 -105 -41 -159 -19 -14 6 -17 4 -14 -5 13 -40
122 -34 191 10 43 27 45 27 50 9 10 -39 -13 -89 -56 -120 -37 -27 -48 -30 -89
-25 -70 8 -135 40 -156 75 -9 17 -25 31 -34 31 -26 0 -22 -14 15 -50 47 -47
118 -80 172 -80 56 0 92 18 134 65 27 31 31 43 31 90 0 38 -4 55 -12 55 -7 0
-40 -16 -73 -36z"/>
<path d="M5705 7824 c9 -9 19 -13 23 -10 3 4 0 11 -8 16 -24 15 -33 11 -15 -6z"/>
<path d="M5798 7813 c6 -2 18 -2 25 0 6 3 1 5 -13 5 -14 0 -19 -2 -12 -5z"/>
<path d="M5735 7799 c-13 -5 9 -8 59 -8 44 -1 77 1 75 3 -10 8 -116 13 -134 5z"/>
<path d="M6073 7783 c15 -2 37 -2 50 0 12 2 0 4 -28 4 -27 0 -38 -2 -22 -4z"/>
<path d="M5685 7478 c-20 -18 -39 -48 -44 -65 -11 -36 -5 -40 25 -18 28 21 32
19 42 -17 11 -42 41 -48 73 -14 13 14 27 26 32 26 11 0 9 -78 -3 -101 -8 -15
-7 -19 4 -19 19 0 26 22 26 79 0 53 -39 124 -81 147 -33 18 -35 18 -74 -18z"/>
<path d="M6070 7496 c0 -9 -9 -33 -20 -53 -22 -42 -25 -65 -10 -94 14 -26 27
-24 54 8 l23 27 29 -23 29 -23 3 33 c5 49 -14 104 -40 117 -45 22 -68 24 -68
8z"/>
<path d="M5880 7333 c0 -117 13 -163 45 -163 30 0 30 1 5 30 -16 18 -20 37
-20 90 0 37 -3 82 -6 99 -12 59 -24 31 -24 -56z"/>
<path d="M5736 7153 c-11 -12 -6 -43 8 -43 7 0 43 -23 80 -51 118 -89 175
-101 225 -46 34 35 65 93 57 105 -3 5 -35 5 -73 1 -126 -14 -212 -11 -241 9
-41 29 -49 32 -56 25z m344 -58 c0 -8 -17 -33 -37 -56 -34 -37 -41 -41 -75
-36 -37 5 -113 51 -122 75 -4 9 10 12 52 13 49 1 172 13 180 18 1 0 2 -6 2
-14z"/>
<path d="M5567 7743 c-3 -5 -1 -17 3 -28 6 -17 7 -16 12 8 5 25 -5 37 -15 20z"/>
<path d="M5552 7700 c0 -14 2 -19 5 -12 2 6 2 18 0 25 -3 6 -5 1 -5 -13z"/>
<path d="M9033 7402 l-42 -3 5 -52 c13 -135 13 -137 40 -137 19 0 29 9 41 38
l16 37 11 -28 c5 -15 15 -26 20 -24 18 7 8 58 -15 83 l-22 24 46 0 c35 0 47 4
47 15 0 32 -66 54 -147 47z"/>
<path d="M8676 7321 c-9 -10 -21 -32 -26 -49 -7 -25 -5 -36 11 -54 l19 -23 -6
33 c-4 17 -3 32 1 32 12 0 34 -33 35 -52 1 -52 80 9 80 61 0 59 -76 94 -114
52z"/>
<path d="M8827 7250 c-13 -44 -27 -113 -27 -129 0 -23 62 -79 68 -61 2 6 -6
22 -18 35 -20 22 -21 27 -10 78 9 39 10 60 2 73 -9 15 -11 16 -15 4z"/>
<path d="M9021 7036 c-7 -8 -32 -23 -57 -33 -24 -10 -44 -23 -44 -29 0 -36
-64 -47 -104 -18 -19 13 -18 14 14 15 19 1 46 5 60 9 19 6 14 8 -25 7 -27 0
-67 3 -88 8 -37 8 -38 7 -27 -16 12 -27 96 -79 127 -79 11 0 30 11 43 25 12
13 40 36 61 51 38 26 77 74 60 74 -4 0 -14 -6 -20 -14z"/>
<path d="M736 7411 c-3 -5 1 -12 10 -15 22 -8 25 -4 9 11 -8 7 -16 9 -19 4z"/>
<path d="M945 7298 c-30 -17 -36 -30 -29 -63 15 -78 114 -74 114 4 0 12 4 21
10 21 14 0 30 -35 30 -64 0 -14 5 -28 12 -32 8 -5 10 9 5 52 -4 44 -12 64 -28
77 -24 19 -84 22 -114 5z"/>
<path d="M797 7213 c-15 -14 -6 -33 18 -39 25 -6 25 -6 18 -95 -4 -61 -3 -89
5 -89 23 0 28 158 6 214 -6 16 -35 22 -47 9z"/>
<path d="M674 6932 c27 -53 148 -111 202 -98 34 9 94 65 94 88 0 15 -5 18 -20
13 -12 -4 -47 -6 -78 -6 -51 0 -84 5 -185 27 l-29 7 16 -31z m256 -29 c2 -2
-1 -12 -6 -21 -8 -12 -27 -18 -63 -20 -42 -2 -61 2 -97 23 -24 14 -44 28 -44
30 0 5 203 -6 210 -12z"/>
<path d="M2138 6883 c12 -2 30 -2 40 0 9 3 -1 5 -23 4 -22 0 -30 -2 -17 -4z"/>
<path d="M3630 6497 c0 -24 30 -58 78 -89 76 -49 191 -101 209 -94 23 9 10 28
-28 42 -54 18 -161 73 -184 93 -27 24 -75 55 -75 48z"/>
<path d="M4165 6010 c-10 -17 54 -138 85 -160 17 -12 30 -17 30 -11 0 6 -4 11
-8 11 -11 0 -70 100 -78 133 -7 31 -20 42 -29 27z"/>
<path d="M7425 6040 c-22 -11 -31 -18 -20 -14 11 3 25 7 30 8 6 1 19 7 30 14
33 19 3 13 -40 -8z"/>
<path d="M6890 5985 c13 -14 25 -25 27 -25 9 0 -33 49 -41 50 -5 0 1 -11 14
-25z"/>
<path d="M7314 5985 c-10 -8 -14 -14 -9 -14 6 0 19 6 29 14 11 8 15 15 10 15
-6 0 -19 -7 -30 -15z"/>
<path d="M7225 5945 c-24 -12 -25 -13 -5 -8 14 4 33 7 42 7 9 0 14 4 12 8 -7
11 -14 10 -49 -7z"/>
<path d="M7140 5923 c-14 -2 -35 -9 -46 -14 -15 -8 -27 -8 -42 0 -11 6 -29 11
-39 11 -10 -1 0 -7 22 -15 36 -13 47 -12 100 4 57 18 59 23 5 14z"/>
<path d="M6831 5863 c7 -12 15 -20 18 -17 3 2 -3 12 -13 22 -17 16 -18 16 -5
-5z"/>
<path d="M2628 5693 c7 -3 16 -2 19 1 4 3 -2 6 -13 5 -11 0 -14 -3 -6 -6z"/>
<path d="M2908 5603 c7 -3 16 -2 19 1 4 3 -2 6 -13 5 -11 0 -14 -3 -6 -6z"/>
<path d="M2948 5593 c7 -3 16 -2 19 1 4 3 -2 6 -13 5 -11 0 -14 -3 -6 -6z"/>
<path d="M3008 5583 c6 -2 18 -2 25 0 6 3 1 5 -13 5 -14 0 -19 -2 -12 -5z"/>
<path d="M3098 5583 c7 -3 16 -2 19 1 4 3 -2 6 -13 5 -11 0 -14 -3 -6 -6z"/>
<path d="M1728 6629 c-21 -11 -38 -22 -38 -24 0 -5 79 32 89 41 12 11 -18 1
-51 -17z"/>
<path d="M1531 6547 c-11 -17 -11 -17 16 -1 15 10 30 19 32 20 2 2 -6 2 -17 1
-11 0 -25 -9 -31 -20z"/>
<path d="M8928 6643 c7 -3 16 -2 19 1 4 3 -2 6 -13 5 -11 0 -14 -3 -6 -6z"/>
<path d="M664 5746 c26 -8 52 -19 56 -26 5 -8 10 -8 14 -2 7 12 -64 42 -97 41
-12 0 0 -6 27 -13z"/>
<path d="M8701 6404 c0 -11 3 -14 6 -6 3 7 2 16 -1 19 -3 4 -6 -2 -5 -13z"/>
<path d="M8780 5927 c0 -21 35 -93 51 -103 6 -3 3 5 -6 20 -10 14 -23 43 -31
64 -7 20 -13 29 -14 19z"/>
<path d="M8698 5673 c12 -2 32 -2 45 0 12 2 2 4 -23 4 -25 0 -35 -2 -22 -4z"/>
<path d="M8778 5663 c7 -3 16 -2 19 1 4 3 -2 6 -13 5 -11 0 -14 -3 -6 -6z"/>
<path d="M2250 5639 c0 -5 5 -7 10 -4 6 3 10 8 10 11 0 2 -4 4 -10 4 -5 0 -10
-5 -10 -11z"/>
<path d="M1100 5829 c0 -8 100 -42 107 -35 2 1 -21 12 -52 23 -30 12 -55 17
-55 12z"/>
<path d="M428 5948 c5 -5 16 -8 23 -6 8 3 3 7 -10 11 -17 4 -21 3 -13 -5z"/>
<path d="M8050 5813 l-25 -15 25 6 c14 3 33 6 43 6 9 0 17 5 17 10 0 14 -31
11 -60 -7z"/>
<path d="M8140 5821 c0 -6 5 -13 10 -16 6 -3 10 1 10 9 0 9 -4 16 -10 16 -5 0
-10 -4 -10 -9z"/>
<path d="M8170 5801 c0 -11 64 -18 110 -11 27 4 31 7 17 13 -26 10 -127 9
-127 -2z"/>
<path d="M7532 5760 c0 -14 2 -19 5 -12 2 6 2 18 0 25 -3 6 -5 1 -5 -13z"/>
<path d="M7553 5655 c0 -33 2 -45 4 -27 2 18 2 45 0 60 -2 15 -4 0 -4 -33z"/>
<path d="M7545 5451 c-3 -5 -1 -12 5 -16 5 -3 10 -1 10 4 0 6 5 11 11 11 5 0
7 -4 4 -10 -3 -5 -1 -10 4 -10 6 0 11 7 11 15 0 16 -35 21 -45 6z"/>
<path d="M7848 5753 c7 -3 16 -2 19 1 4 3 -2 6 -13 5 -11 0 -14 -3 -6 -6z"/>
<path d="M8000 5705 c0 -8 5 -24 10 -37 6 -13 14 -54 19 -93 l8 -70 1 55 c1
30 -5 71 -12 91 -7 20 -12 43 -10 53 1 9 -2 16 -7 16 -5 0 -9 -7 -9 -15z"/>
<path d="M8052 5560 c0 -14 2 -19 5 -12 2 6 2 18 0 25 -3 6 -5 1 -5 -13z"/>
<path d="M2892 5360 c0 -19 2 -27 5 -17 2 9 2 25 0 35 -3 9 -5 1 -5 -18z"/>
<path d="M6452 4800 c0 -14 2 -19 5 -12 2 6 2 18 0 25 -3 6 -5 1 -5 -13z"/>
<path d="M6302 3830 c0 -14 2 -19 5 -12 2 6 2 18 0 25 -3 6 -5 1 -5 -13z"/>
<path d="M6092 1860 c0 -14 2 -19 5 -12 2 6 2 18 0 25 -3 6 -5 1 -5 -13z"/>
<path d="M6067 1845 c-4 -8 -3 -16 1 -19 4 -3 9 4 9 15 2 23 -3 25 -10 4z"/>
<path d="M6441 8097 c-100 -28 -71 -34 52 -11 96 17 104 17 185 0 46 -9 94
-24 107 -32 15 -10 25 -11 29 -5 18 29 -122 72 -229 70 -38 -1 -103 -11 -144
-22z"/>
<path d="M27 103 c-25 -4 -27 -8 -27 -54 0 -48 1 -49 30 -49 30 0 30 1 30 55
0 30 -1 54 -2 54 -2 -1 -15 -4 -31 -6z"/>
</g>
</svg>
