<?xml version="1.0" standalone="no"?>
<!DOCTYPE svg PUBLIC "-//W3C//DTD SVG 20010904//EN"
 "http://www.w3.org/TR/2001/REC-SVG-20010904/DTD/svg10.dtd">
<svg version="1.0" xmlns="http://www.w3.org/2000/svg"
 width="1024.000000pt" height="1024.000000pt" viewBox="0 0 1024.000000 1024.000000"
 preserveAspectRatio="xMidYMid meet">
<metadata>
Created by potrace 1.15, written by Peter Selinger 2001-2017
</metadata>
<g transform="translate(0.000000,1024.000000) scale(0.100000,-0.100000)"
fill="#000000" stroke="none">
<path d="M5583 8310 c-313 -48 -623 -163 -980 -366 -157 -89 -417 -272 -421
-296 -2 -9 5 -21 16 -27 15 -8 29 -2 73 28 83 59 256 164 439 267 276 156 628
282 915 329 127 20 133 22 146 47 9 16 8 23 -2 29 -19 12 -44 10 -186 -11z"/>
<path d="M6200 8302 c0 -42 19 -50 142 -62 319 -31 474 -62 778 -157 662 -207
1216 -559 1544 -982 197 -254 297 -446 419 -800 14 -39 37 -57 62 -47 37 14
-4 155 -112 393 -89 194 -222 405 -357 563 -62 73 -277 280 -352 340 -267 212
-694 447 -1015 558 -366 126 -681 194 -1016 218 l-93 7 0 -31z"/>
<path d="M6100 7715 c-63 -18 -126 -52 -189 -103 l-44 -35 -60 12 c-110 23
-265 26 -351 7 -108 -25 -217 -82 -304 -161 -109 -100 -161 -188 -178 -302 -6
-39 -9 -43 -36 -43 -41 0 -105 35 -122 68 -8 15 -19 54 -25 86 -6 33 -18 68
-28 78 -20 22 -64 23 -103 3 -62 -32 -150 -171 -186 -291 -23 -78 -24 -242 -2
-302 l16 -44 -34 -46 c-47 -60 -65 -97 -108 -223 -37 -109 -38 -139 -6 -139
25 0 55 41 76 103 27 84 61 154 91 191 l28 36 50 -49 c27 -26 60 -55 73 -63
23 -16 23 -16 -45 -66 -102 -75 -154 -130 -198 -212 -40 -75 -40 -76 -40 -185
0 -104 2 -114 32 -176 43 -87 139 -179 230 -221 84 -39 196 -46 231 -14 21 18
21 18 28 -9 19 -75 245 -351 306 -374 20 -7 17 -9 -22 -16 -63 -10 -135 -51
-182 -105 -44 -49 -77 -112 -78 -147 l0 -23 -377 -1 c-208 0 -391 -2 -408 -4
-16 -2 -169 -8 -340 -15 -547 -21 -758 -50 -859 -119 -59 -41 -91 -92 -206
-326 -197 -401 -318 -735 -439 -1206 -56 -217 -141 -687 -141 -776 0 -81 56
-62 80 26 5 21 19 101 31 177 26 174 94 505 124 604 12 41 33 120 45 175 53
230 66 235 24 9 -74 -406 -161 -925 -180 -1073 -9 -77 -15 -212 -16 -355 l0
-231 -503 0 c-277 0 -507 -3 -510 -7 -4 -4 -8 -24 -9 -45 l-1 -38 519 0 519 0
36 -36 c20 -20 54 -42 76 -48 29 -8 650 -11 2200 -11 1188 1 2266 2 2395 3
265 2 286 7 336 72 l29 38 280 -7 c154 -3 481 -9 727 -13 408 -6 449 -5 472
11 33 21 33 49 2 64 -33 15 -299 36 -350 28 -60 -10 -33 8 44 28 90 24 238 98
329 166 69 51 221 199 301 293 32 36 32 38 15 57 -10 11 -26 20 -35 20 -9 0
-57 -44 -105 -98 -345 -379 -589 -462 -1305 -441 -124 3 -263 12 -310 19 l-85
14 -1 165 c-2 131 -7 197 -28 311 -31 172 -33 215 -10 206 9 -3 19 -6 24 -6 4
0 10 -27 14 -60 6 -47 14 -68 37 -94 27 -32 100 -66 138 -66 10 0 23 -18 34
-50 35 -98 124 -170 211 -170 50 0 142 34 176 65 14 13 18 11 33 -15 21 -34
82 -55 133 -45 18 3 54 21 81 40 26 18 76 50 110 70 103 60 136 118 97 173
l-15 22 83 0 c139 0 217 56 185 132 -8 18 -24 42 -36 52 -19 18 -20 21 -5 37
9 10 18 36 21 60 5 34 2 45 -12 56 -24 17 -119 16 -170 -2 -51 -19 -51 -19
-30 5 10 11 68 36 129 56 117 37 144 50 188 92 57 52 41 149 -28 178 -32 14
-41 13 -87 -2 -29 -9 -64 -23 -79 -30 -15 -8 -29 -10 -32 -5 -7 11 31 45 79
69 56 28 77 54 82 104 11 118 -96 157 -256 93 -35 -15 -65 -24 -67 -22 -2 2
17 18 42 37 25 18 54 47 65 64 35 57 19 140 -35 179 -17 13 -17 15 9 43 24 26
27 35 23 88 -4 50 -9 63 -35 86 -17 16 -49 31 -72 35 -37 6 -41 10 -41 35 0
72 -51 113 -163 131 -107 17 -116 47 -25 81 42 15 78 38 110 70 41 40 48 53
48 87 0 31 -9 50 -40 90 -52 65 -98 88 -228 112 -59 11 -112 22 -118 24 -8 2
-1 24 17 61 35 69 39 132 9 159 -23 21 -26 35 -7 35 6 0 37 28 68 63 42 47 79
75 145 110 124 67 184 124 184 177 0 14 -11 49 -25 77 -22 48 -23 55 -10 80 8
16 15 39 15 53 0 19 10 29 38 42 82 39 116 148 116 373 0 313 -85 558 -290
830 -29 39 -61 78 -72 88 -29 27 -139 67 -218 79 -79 12 -205 -4 -324 -42
-121 -39 -353 -176 -430 -254 -44 -46 -44 -46 -33 -88 7 -24 8 -44 3 -46 -57
-21 -129 -109 -162 -199 -21 -57 -28 -163 -28 -477 l0 -69 -92 -92 c-111 -110
-235 -187 -401 -251 -166 -63 -263 -78 -466 -71 -283 9 -481 72 -680 217 -141
103 -203 200 -267 420 -35 123 -79 231 -114 280 -18 26 -18 26 47 -7 36 -18
75 -33 86 -33 34 0 109 57 147 112 40 59 118 121 179 143 24 8 74 15 110 15
176 0 331 90 444 258 37 55 77 149 77 182 0 10 5 22 10 25 6 3 10 12 10 18 0
8 -3 7 -9 -2 -7 -11 -10 -11 -15 0 -4 9 -8 10 -11 3 -3 -6 -21 -36 -41 -67
-26 -42 -39 -55 -55 -52 -11 2 -17 0 -14 -6 4 -5 11 -7 16 -4 16 11 10 -6 -18
-41 -14 -19 -29 -30 -32 -25 -4 6 -13 1 -20 -12 -13 -20 -13 -21 2 -8 10 7 17
9 17 3 0 -17 -114 -116 -169 -145 -44 -25 -72 -31 -184 -41 -150 -15 -204 -35
-284 -109 -42 -39 -103 -142 -103 -176 0 -19 -18 -10 -102 51 -79 57 -108 84
-108 103 0 7 10 37 23 66 13 30 21 63 19 74 -6 26 -21 45 -38 45 -16 0 -46
-54 -36 -65 4 -3 3 -6 -3 -5 -20 4 -30 -1 -17 -9 11 -6 9 -15 -8 -42 -21 -32
-22 -29 -4 16 8 19 7 19 -10 2 -11 -11 -16 -27 -14 -42 5 -22 2 -24 -22 -20
-22 4 -40 -5 -87 -43 -32 -26 -76 -66 -97 -89 -41 -46 -63 -53 -73 -26 -10 26
52 135 115 203 61 65 167 134 194 127 9 -3 25 4 34 14 9 10 23 19 30 19 8 0
11 6 7 17 -5 12 -3 14 7 8 9 -5 11 -4 6 4 -4 6 -45 36 -91 66 -100 66 -127 96
-174 195 -33 68 -36 82 -34 155 3 126 54 253 141 348 29 31 42 22 42 -29 0
-52 50 -136 95 -161 56 -31 113 -38 157 -20 32 13 38 22 53 74 52 183 184 327
358 392 91 33 229 47 316 32 50 -9 76 -19 84 -32 6 -10 17 -19 23 -19 6 0 56
27 110 60 121 74 211 104 297 98 153 -10 246 -106 321 -335 41 -124 44 -126
294 -183 198 -45 222 -61 222 -151 0 -55 -33 -114 -96 -176 -62 -60 -71 -93
-26 -93 71 0 180 121 203 225 10 46 9 57 -12 110 -33 83 -86 114 -246 145
-147 28 -218 47 -231 63 -5 7 -26 64 -45 127 -52 167 -138 276 -259 330 -63
28 -177 34 -248 15z m1779 -1096 c21 -6 48 -20 62 -30 22 -19 21 -19 -16 1
-44 22 -59 25 -50 10 3 -5 -1 -10 -10 -10 -11 0 -15 5 -11 15 3 9 0 15 -9 15
-9 0 -12 -6 -9 -15 4 -9 1 -15 -7 -15 -7 0 -2 -8 11 -17 29 -20 22 -13 130
-132 51 -56 86 -104 88 -120 2 -14 7 -27 13 -29 5 -2 9 -11 9 -20 0 -12 -4
-11 -21 7 -11 12 -18 28 -16 36 3 7 -4 21 -16 32 -19 16 -20 16 -8 1 12 -16
11 -18 -10 -18 -18 0 -20 -3 -10 -9 7 -5 11 -13 7 -19 -3 -6 3 -13 14 -17 25
-8 26 -20 3 -35 -15 -9 -14 -10 9 -6 17 4 32 1 41 -9 34 -33 34 -315 0 -315
-8 0 -23 -10 -34 -22 -10 -13 -18 -18 -19 -11 0 6 7 18 15 27 8 8 15 31 15 50
0 32 -3 36 -25 36 -22 0 -25 4 -25 40 0 22 5 40 10 40 6 0 10 18 10 40 0 38 2
40 30 40 17 0 30 -5 30 -12 0 -6 2 -9 5 -6 3 3 3 13 -1 22 -7 18 -84 24 -84 6
0 -5 -9 -10 -20 -10 -11 0 -20 5 -20 10 0 6 -9 10 -20 10 -14 0 -20 7 -21 23
-1 16 -2 18 -6 5 -6 -22 -19 -23 -31 -2 -5 10 -14 14 -21 9 -17 -10 25 -49 45
-41 9 3 14 -1 14 -13 0 -49 -5 -51 -121 -44 -104 6 -109 5 -109 -13 0 -16 -7
-20 -37 -21 l-38 -1 33 10 c17 6 32 15 32 21 0 5 -7 6 -16 3 -9 -3 -27 -9 -40
-12 -13 -3 -24 -10 -24 -15 0 -5 -11 -9 -25 -9 -22 0 -25 -4 -25 -40 0 -29 -4
-40 -15 -40 -8 0 -15 9 -15 19 0 21 -17 37 -27 27 -3 -3 0 -12 7 -21 15 -19 4
-206 -14 -217 -22 -15 -26 -7 -26 52 0 41 -4 60 -12 60 -10 0 -13 -56 -14
-245 l0 -245 25 1 c17 1 20 3 9 6 -21 5 -23 27 -7 72 18 51 37 39 31 -20 l-5
-51 99 5 c55 3 100 6 101 6 1 1 0 7 -3 15 -3 7 2 16 11 20 9 3 13 2 10 -4 -7
-12 -3 -12 19 -4 14 5 14 8 0 21 -8 9 -22 12 -32 8 -14 -5 -15 -4 -4 7 11 11
18 10 42 -4 16 -9 32 -13 35 -8 3 4 0 10 -6 12 -7 2 4 4 24 4 20 0 35 -1 34
-2 -1 -1 -28 -16 -60 -33 -97 -54 -161 -70 -269 -71 l-96 0 1 283 c2 300 -7
540 -22 579 -24 62 -99 87 -194 63 -33 -8 -62 -13 -65 -10 -9 8 48 63 113 110
33 24 112 66 175 93 136 59 154 65 200 68 48 4 183 24 195 28 19 8 48 6 84 -5z
m142 -96 c13 -16 12 -17 -3 -4 -10 7 -18 15 -18 17 0 8 8 3 21 -13z m-741
-244 c0 -5 4 -8 8 -5 4 2 18 -3 31 -13 22 -17 22 -20 15 -117 -6 -72 -10 -89
-14 -62 -3 21 -13 47 -23 59 -16 18 -26 21 -64 15 -54 -7 -129 -46 -187 -97
-31 -28 -45 -49 -54 -85 -11 -49 -28 -172 -24 -186 1 -4 2 -36 3 -72 2 -70 9
-78 79 -89 l25 -4 -26 -2 c-43 -2 -98 26 -105 53 -3 13 -4 100 -2 193 3 145 6
174 24 214 27 58 83 122 101 115 8 -3 12 -2 9 3 -7 11 9 25 75 61 54 30 129
41 129 19z m-2553 -91 c-3 -7 -5 -2 -5 12 0 14 2 19 5 13 2 -7 2 -19 0 -25z
m11 -35 c-2 -10 8 -28 21 -39 l25 -21 -27 0 c-15 0 -30 3 -33 8 -3 5 2 6 10 3
9 -3 16 -2 16 4 0 5 -6 12 -14 15 -9 4 -12 14 -9 26 6 25 16 28 11 4z m-228
-143 c0 -5 -2 -10 -4 -10 -3 0 -8 5 -11 10 -3 6 -1 10 4 10 6 0 11 -4 11 -10z
m3570 -125 c0 -8 -4 -15 -10 -15 -5 0 -7 7 -4 15 4 8 8 15 10 15 2 0 4 -7 4
-15z m-23 -79 c-23 -71 -56 -130 -114 -206 -2 -2 -9 2 -14 10 -9 13 -10 12 -5
-2 6 -20 -13 -42 -56 -64 -23 -12 -29 -13 -26 -2 2 7 14 17 26 23 12 5 22 13
22 17 0 13 -28 9 -33 -4 -2 -7 -8 -10 -12 -6 -4 4 -1 14 8 22 8 8 17 13 20 10
7 -8 39 26 57 60 23 44 62 79 71 64 5 -7 7 16 4 52 -4 61 -4 62 6 23 6 -24 14
-43 20 -43 5 0 7 11 3 25 -4 16 -2 25 6 25 6 0 10 8 9 18 -3 29 1 38 10 23 5
-7 4 -27 -2 -45z m-17 24 c0 -5 -4 -10 -10 -10 -5 0 -10 5 -10 10 0 6 5 10 10
10 6 0 10 -4 10 -10z m-717 -232 c-4 -140 -2 -216 6 -246 23 -83 116 -158 210
-169 28 -3 51 -6 51 -7 0 -1 -26 -29 -58 -63 -32 -34 -80 -93 -107 -130 -47
-65 -113 -118 -220 -175 l-33 -17 -42 39 c-44 41 -147 104 -215 133 -138 58
-298 70 -479 37 -69 -13 -130 -26 -137 -31 -8 -5 0 -18 26 -41 53 -46 66 -54
145 -94 63 -31 70 -37 64 -57 -11 -38 -56 -115 -79 -137 -50 -47 -165 -52
-278 -13 -61 21 -83 34 -104 62 -14 20 -44 55 -66 78 l-39 41 41 30 c24 17 60
33 88 37 63 9 112 30 146 62 22 22 27 36 27 73 l0 46 78 24 c224 71 516 268
583 394 l22 43 87 -1 c92 -1 116 8 168 63 l25 26 -6 -25 c-4 -14 -16 -74 -28
-133 -23 -116 -19 -138 19 -118 34 18 62 90 63 162 1 97 31 309 45 309 1 0 0
-91 -3 -202z m196 150 c0 -7 -4 -22 -8 -33 -7 -17 -9 -15 -13 13 -3 22 -1 32
9 32 7 0 13 -6 12 -12z m205 -492 c-22 -24 -42 -45 -45 -45 -3 -1 -12 11 -20
25 -15 29 -45 44 -87 44 -15 0 -34 5 -42 10 -10 7 25 10 109 10 l124 0 -39
-44z m404 13 c18 -17 32 -38 32 -46 0 -29 -29 -82 -54 -98 -24 -16 -28 -16
-81 9 -30 13 -55 21 -55 15 0 -5 4 -9 10 -9 5 0 27 -16 49 -35 44 -40 63 -43
109 -15 41 25 42 25 42 -3 0 -34 -23 -51 -135 -98 -97 -40 -170 -85 -209 -128
-11 -12 -23 -21 -27 -21 -12 0 -51 112 -46 132 3 10 0 18 -5 18 -7 0 -8 28 -3
82 7 81 8 83 56 136 27 29 49 60 49 67 0 14 31 18 181 23 50 2 58 -1 87 -29z
m-2786 -117 c17 -17 -31 -91 -91 -140 l-54 -44 -29 79 c-16 43 -30 82 -31 87
-6 27 180 43 205 18z m2327 -44 c-5 -18 -9 -46 -9 -62 0 -16 -8 -38 -17 -48
-15 -17 -15 -20 -3 -28 10 -7 11 -10 3 -10 -8 0 -13 -15 -14 -37 0 -21 -4 -47
-9 -58 -7 -14 -8 -8 -3 19 4 30 3 38 -8 34 -8 -3 -13 -16 -12 -29 2 -22 2 -22
-6 -4 -14 29 -13 29 14 59 25 28 18 37 -9 10 -24 -24 -39 -54 -26 -54 5 0 10
-8 10 -18 0 -9 9 -35 21 -56 15 -29 18 -41 9 -50 -8 -8 -9 -6 -4 8 5 13 4 17
-4 12 -7 -4 -12 -2 -12 3 0 6 -4 11 -9 11 -5 0 -2 -16 7 -34 9 -19 20 -32 25
-29 6 3 7 1 3 -5 -4 -7 3 -22 15 -34 12 -13 30 -36 41 -53 16 -24 18 -25 13
-7 -6 22 -6 22 19 -3 19 -18 36 -25 66 -25 39 0 40 -1 40 -36 0 -54 -15 -74
-55 -74 -97 0 -233 95 -275 192 -12 29 -25 80 -28 113 l-4 61 53 66 c106 129
164 197 171 197 4 1 2 -14 -3 -31z m-2563 -80 l23 -68 -70 0 c-42 0 -69 4 -69
11 0 5 18 37 40 69 22 32 40 65 41 72 1 15 3 10 35 -84z m389 48 c105 -25 277
-49 372 -50 51 0 89 -4 85 -8 -4 -3 -36 -14 -72 -23 -36 -9 -92 -30 -125 -46
-66 -32 -94 -34 -313 -22 l-121 6 28 33 c16 17 35 55 42 83 10 38 17 50 28 47
9 -3 43 -12 76 -20z m1231 -136 c111 -25 212 -72 313 -145 66 -47 114 -75 130
-75 14 0 68 25 119 55 l94 55 -7 -40 c-10 -62 11 -131 66 -210 32 -47 43 -70
32 -68 -9 2 -18 -4 -20 -12 -3 -9 -1 -11 4 -5 17 21 80 5 67 -17 -4 -7 -2 -8
4 -4 6 4 42 -9 79 -28 l68 -34 -46 -44 c-54 -52 -112 -81 -205 -103 -58 -13
-86 -14 -179 -5 -124 12 -252 36 -243 45 2 2 23 0 46 -6 63 -14 133 -19 127
-9 -7 12 88 23 135 15 46 -8 103 2 94 17 -4 6 -10 6 -17 -1 -6 -6 -27 -11 -46
-11 -39 0 -38 9 2 12 14 1 24 5 21 9 -2 4 -21 3 -41 -3 -20 -5 -55 -8 -79 -6
-23 1 -40 0 -38 -3 7 -13 -68 -21 -80 -9 -8 8 -7 10 6 5 9 -4 24 -2 34 3 14 8
13 12 -15 28 -17 10 -31 22 -31 27 0 5 5 5 13 0 6 -6 21 -13 32 -17 14 -5 11
1 -10 18 -16 14 -33 26 -37 27 -17 3 -28 7 -30 9 -10 7 -38 7 -38 -1 0 -5 -5
-9 -12 -9 -9 0 -9 3 0 12 14 14 16 32 3 24 -5 -3 -12 4 -16 17 -11 35 -12 57
-3 51 4 -3 8 -14 8 -24 0 -10 5 -22 10 -25 6 -3 10 0 10 7 0 10 2 10 9 -1 5
-8 7 -21 3 -30 -3 -9 -2 -13 3 -9 4 4 14 3 22 -3 22 -19 14 1 -16 40 -16 20
-39 57 -51 84 -32 69 -74 110 -102 102 -18 -5 -20 -4 -8 4 12 8 5 11 -27 11
-33 0 -46 -5 -62 -26 -22 -28 -28 -69 -12 -78 5 -4 7 2 5 11 -3 10 2 27 11 38
16 20 16 19 10 -5 l-7 -25 17 23 c9 13 14 29 11 37 -3 8 -1 15 4 15 6 0 10
-10 10 -22 0 -13 3 -34 6 -48 4 -17 3 -21 -4 -12 -7 10 -11 10 -21 -1 -9 -12
-8 -15 6 -13 10 0 17 -3 16 -9 -1 -5 13 -11 30 -11 29 -1 30 -1 11 14 -17 13
-17 14 -1 8 10 -3 27 -1 37 4 10 6 21 6 24 2 11 -19 -15 -33 -67 -39 -64 -7
-66 -10 -38 -80 60 -156 138 -578 148 -800 7 -137 -3 -191 -43 -237 -24 -27
-26 -28 -39 -10 -8 11 -15 23 -15 27 0 4 -21 31 -47 59 -50 53 -33 52 25 -1
19 -18 30 -36 26 -43 -4 -6 -3 -8 4 -5 21 14 4 43 -43 74 -27 18 -52 30 -56
28 -4 -3 -36 25 -72 62 -162 169 -227 270 -429 673 -62 124 -115 229 -117 234
-2 5 8 6 21 3 14 -4 68 -7 121 -8 129 -1 175 19 211 94 52 107 69 233 36 272
-6 8 -42 24 -78 36 -85 27 -90 31 -66 40 28 11 222 10 270 -1z m-839 -47 c-14
-48 -14 -48 -29 -35 -7 5 -35 17 -63 24 l-49 15 59 7 c33 3 67 11 75 16 8 5
16 10 17 10 0 0 -4 -17 -10 -37z m-1572 -55 c19 -9 28 -9 37 0 13 13 132 17
124 4 -3 -5 18 -5 47 -2 57 8 90 3 81 -12 -4 -5 -20 -7 -38 -5 -17 3 -40 2
-51 -3 -17 -7 -14 -9 15 -10 19 -1 27 -4 18 -7 -11 -3 -18 -14 -18 -29 0 -19
5 -24 28 -25 l27 -2 -27 -4 c-16 -2 -28 -8 -28 -12 0 -8 -65 -12 -475 -31
-292 -14 -439 -28 -542 -55 -101 -27 -136 -41 -128 -54 2 -5 -4 -11 -15 -14
-11 -3 -20 -11 -20 -19 0 -10 3 -9 10 2 11 17 13 10 4 -14 -3 -9 -10 -13 -15
-10 -10 6 -11 3 -15 -36 -1 -14 -10 -72 -19 -130 -14 -87 -16 -146 -11 -348 7
-257 20 -436 36 -477 6 -17 14 -23 25 -18 15 5 16 29 8 237 -4 127 -7 256 -7
286 1 30 3 130 4 221 l2 166 82 7 c187 14 1261 -8 1284 -27 8 -6 64 -21 125
-33 l112 -22 -135 5 c-74 3 -237 0 -361 -5 -212 -10 -233 -13 -318 -41 -162
-55 -308 -143 -387 -235 -122 -142 -155 -360 -84 -546 43 -111 99 -192 204
-295 50 -49 89 -94 88 -98 -1 -5 2 -6 7 -3 4 3 42 -18 82 -47 113 -81 182
-123 287 -176 82 -41 241 -108 291 -123 20 -6 -198 -27 -354 -34 -213 -10
-465 30 -602 97 -72 35 -151 102 -178 153 -28 53 -35 44 -18 -23 27 -105 91
-162 253 -221 149 -55 240 -64 660 -64 206 -1 483 3 615 7 132 5 413 11 625
13 212 3 417 9 455 15 90 12 184 57 230 111 54 64 82 187 55 239 -17 31 -27
22 -32 -30 -9 -91 -67 -174 -150 -217 -53 -27 -135 -44 -124 -26 4 7 1 12 -7
12 -15 0 -32 28 -23 37 2 3 14 2 27 -2 17 -6 19 -9 8 -16 -11 -7 -10 -9 4 -9
9 0 17 4 17 8 0 5 11 15 25 22 13 7 22 17 19 22 -3 4 -12 1 -20 -7 -18 -17
-17 -17 -38 -9 -18 7 -22 39 -6 49 12 7 14 75 2 75 -5 0 -9 7 -9 15 0 8 4 15
9 15 4 0 8 -7 8 -14 0 -12 6 -13 31 -4 l32 11 -26 13 c-18 10 -24 19 -20 34 7
27 27 25 43 -5 7 -14 18 -21 24 -17 6 4 14 7 19 7 10 0 8 9 -7 45 -7 17 -16
27 -21 23 -4 -5 -5 -3 -2 3 12 21 -50 135 -62 115 -3 -5 -6 21 -6 57 0 49 -6
80 -23 116 -32 67 -81 216 -84 255 -3 35 -13 48 -23 31 -5 -7 -12 -5 -21 7
-12 17 -13 16 -14 -9 0 -15 -4 -30 -10 -33 -6 -4 -10 16 -10 52 0 170 -126
349 -337 480 -202 125 -335 180 -543 224 l-135 28 463 0 c254 1 462 5 462 9 0
5 -13 20 -28 35 -25 24 -36 27 -101 27 -45 0 -70 4 -66 10 3 6 26 10 51 10 24
0 44 5 44 10 0 6 19 11 43 11 l42 2 -40 7 c-22 4 -76 17 -119 29 -44 11 -89
21 -102 21 -12 0 -24 3 -26 8 -5 12 -128 69 -187 86 -30 9 -71 16 -90 16 -35
1 -35 1 -16 16 19 16 19 16 -7 12 -17 -3 -28 -1 -28 6 0 17 -49 36 -94 37
l-41 2 35 7 c35 7 28 8 -245 15 -44 2 -89 5 -100 7 -11 3 -25 1 -32 -4 -6 -5
-29 -8 -50 -5 l-38 4 45 2 c38 3 41 4 20 11 -16 5 5 8 60 7 47 -1 74 -4 60 -7
-14 -3 61 -4 165 -2 105 2 244 -1 310 -7 66 -6 174 -16 240 -21 179 -16 310
-45 365 -83 79 -52 185 -221 380 -602 334 -652 344 -671 545 -1025 60 -106
165 -300 231 -427 30 -60 62 -113 70 -120 22 -16 11 -31 -71 -103 -91 -79
-186 -126 -305 -150 -114 -23 -327 -40 -505 -40 -113 0 -216 -5 -515 -26 -36
-2 -99 -9 -140 -14 -41 -6 -88 -9 -105 -7 -18 2 -9 4 23 5 30 1 52 7 52 13 0
7 12 9 35 5 21 -4 35 -3 35 3 0 17 -13 19 -67 12 -29 -4 -50 -4 -47 1 3 4 22
8 42 9 20 1 48 4 62 8 25 7 25 7 3 13 -13 3 -23 2 -23 -3 0 -5 -19 -8 -42 -8
l-43 2 35 7 c34 7 30 11 -20 16 -14 1 -56 7 -95 14 -159 26 -534 71 -585 71
-36 -1 -50 2 -41 8 9 6 -23 11 -90 14 -146 7 -240 4 -226 -6 7 -5 4 -6 -8 -2
-42 15 -102 24 -155 23 l-55 -1 60 -7 c45 -5 50 -7 23 -8 -26 -1 -38 -7 -38
-17 0 -12 -16 -15 -80 -15 -81 0 -97 9 -68 38 9 9 0 12 -40 12 -29 0 -52 -4
-52 -10 0 -16 -27 -12 -34 5 -7 20 -46 20 -46 0 0 -17 -32 -18 -115 -5 l-50 7
45 3 45 3 -45 6 c-25 3 -44 9 -42 14 10 30 0 35 -74 39 -46 2 -78 8 -83 16
-10 16 -81 29 -81 14 0 -6 15 -13 33 -15 l32 -4 -31 -1 c-25 -2 -40 7 -70 38
-37 39 -42 41 -84 36 -33 -4 -38 -3 -20 4 16 5 -14 6 -77 4 -87 -3 -103 -2
-103 11 0 17 -4 18 -49 9 -38 -8 -40 -21 -3 -27 15 -2 -13 -3 -61 -3 l-88 1
66 16 c115 29 93 37 -37 13 -25 -4 -38 -3 -38 4 0 6 17 12 38 14 20 2 -41 3
-137 3 -130 0 -175 3 -178 13 -5 14 33 17 42 2 8 -12 45 -13 45 -1 0 9 -48 21
-87 21 -20 0 -22 -3 -13 -19 5 -11 10 -31 10 -45 0 -16 6 -26 15 -26 8 0 15
-7 15 -15 0 -18 -27 -75 -36 -75 -2 0 0 9 6 19 13 25 14 63 1 42 -6 -9 -11 3
-16 38 -4 28 -11 53 -16 56 -5 4 -6 -9 -3 -27 l5 -33 -17 35 c-10 19 -22 37
-26 38 -5 2 -6 8 -2 13 3 5 -2 9 -10 9 -9 0 -16 5 -16 11 0 6 7 8 17 5 10 -4
14 -4 10 1 -5 4 -23 8 -40 9 l-31 2 27 -20 c62 -45 88 -138 61 -225 -10 -32
-18 -63 -17 -70 0 -7 -4 -11 -11 -10 -6 1 -10 -6 -8 -15 2 -13 -2 -16 -14 -11
-13 5 -15 3 -9 -7 5 -8 4 -11 -2 -7 -13 8 -75 -37 -65 -48 4 -4 -3 -4 -15 -1
-16 5 -23 3 -23 -6 0 -9 -3 -9 -8 -2 -4 6 -25 14 -47 17 -45 7 -70 32 -85 85
-14 51 -13 92 5 142 19 55 19 57 -5 29 -10 -13 -20 -19 -21 -14 -12 95 5 273
52 532 17 92 36 201 41 240 7 47 14 70 21 66 6 -4 8 0 4 10 -7 20 2 79 12 73
3 -2 6 10 7 27 2 98 177 726 204 735 6 2 10 16 10 30 0 24 19 70 20 48 0 -5 6
-3 14 3 22 18 38 -37 20 -70 -7 -13 -13 -32 -14 -42 0 -11 -4 -15 -12 -11 -7
4 -8 3 -4 -4 4 -6 2 -20 -3 -30 -14 -25 -40 -143 -31 -137 4 3 11 22 15 42 5
21 9 43 11 48 1 6 21 56 44 113 22 56 38 107 34 114 -4 6 -3 8 3 5 13 -8 46
70 37 86 -4 7 -3 9 1 4 11 -10 55 107 53 138 -1 13 -5 22 -9 19 -4 -2 -5 -14
-1 -27 5 -19 3 -20 -10 -10 -12 11 -15 8 -15 -18 0 -19 3 -25 9 -17 5 9 8 10
8 1 0 -19 -20 -26 -26 -9 -3 9 -11 13 -16 10 -13 -8 0 36 17 56 7 8 11 20 8
26 -2 6 3 17 12 24 8 7 15 16 15 21 0 11 51 91 63 100 5 4 14 17 20 30 24 46
187 65 675 76 239 5 285 4 293 -8 7 -11 9 -10 9 4 0 17 11 18 139 15 77 -2
137 0 134 5 -6 11 12 9 42 -5z m548 -35 c-18 -2 -48 -2 -65 0 -18 2 -4 4 32 4
36 0 50 -2 33 -4z m277 -23 c0 -5 -4 -10 -10 -10 -5 0 -10 5 -10 10 0 6 5 10
10 10 6 0 10 -4 10 -10z m2556 -81 c6 -5 14 -6 17 -2 4 3 7 1 7 -5 0 -18 -25
-14 -51 8 -21 17 -21 19 -4 13 11 -3 25 -10 31 -14z m-2411 -13 c19 -8 35 -17
35 -20 0 -5 -79 22 -89 31 -11 8 23 1 54 -11z m120 -16 c3 -5 -1 -10 -10 -10
-9 0 -13 5 -10 10 3 6 8 10 10 10 2 0 7 -4 10 -10z m42 -16 c-3 -3 -12 -4 -19
-1 -8 3 -5 6 6 6 11 1 17 -2 13 -5z m1549 -138 c0 -25 -3 -30 -12 -22 -8 8 -8
17 -1 33 6 13 11 23 12 23 0 0 1 -15 1 -34z m-4086 -81 c0 -5 -5 -3 -10 5 -5
8 -10 20 -10 25 0 6 5 3 10 -5 5 -8 10 -19 10 -25z m4102 -37 c-10 -22 -11
-21 -11 12 -1 26 2 31 11 22 8 -8 8 -17 0 -34z m-28 2 c-6 -6 -10 -2 -11 12
-2 16 1 18 10 9 7 -7 8 -14 1 -21z m963 -20 c64 -17 119 -33 122 -35 2 -3 -13
-5 -34 -5 -47 0 -187 37 -212 56 -27 20 -5 17 124 -16z m-5122 -35 c-3 -20 0
-35 5 -35 6 0 10 -10 9 -22 0 -20 -2 -19 -16 8 -10 20 -13 42 -9 58 9 37 16
32 11 -9z m4946 9 c55 -59 191 -100 297 -90 89 9 81 -8 -34 -80 -103 -64 -132
-94 -141 -149 -12 -73 50 -166 131 -200 17 -8 65 -16 106 -20 89 -8 140 -22
140 -38 0 -7 -47 -52 -105 -100 -64 -53 -107 -97 -111 -112 -10 -41 4 -72 43
-96 31 -20 49 -23 125 -21 49 0 99 4 111 7 18 5 15 0 -13 -27 -20 -18 -51 -45
-69 -60 -30 -24 -34 -33 -33 -73 1 -104 73 -137 189 -88 32 13 93 18 93 8 0
-3 -19 -30 -41 -61 -47 -61 -57 -120 -27 -151 16 -15 22 -14 98 21 45 21 84
36 87 32 3 -3 -14 -14 -38 -25 -24 -11 -69 -30 -100 -44 -45 -20 -68 -40 -114
-96 -73 -90 -83 -138 -39 -190 30 -37 77 -60 121 -62 18 -1 -4 -11 -62 -30
-125 -40 -156 -79 -120 -148 l14 -28 -102 -53 c-56 -29 -112 -61 -124 -73
l-23 -20 0 56 c0 53 -2 57 -32 73 -51 26 -144 16 -208 -24 -56 -35 -91 -40
-110 -17 -15 19 -8 29 40 56 69 39 94 128 88 323 -4 142 -23 196 -87 241 -48
33 -147 43 -266 26 -112 -16 -163 -44 -195 -108 l-25 -50 -54 101 c-30 55 -87
153 -128 217 -40 64 -73 120 -73 124 0 5 25 34 55 66 31 32 62 74 70 93 33 78
9 418 -45 650 -10 45 -17 82 -16 83 1 2 17 -2 35 -7 18 -5 75 -14 127 -20 114
-12 211 -1 298 36 33 14 81 33 105 42 34 12 53 28 85 73 22 32 44 59 47 59 3
0 16 -12 30 -26z m-4911 -8 c0 -3 -4 -8 -10 -11 -5 -3 -10 -1 -10 4 0 6 5 11
10 11 6 0 10 -2 10 -4z m4290 -16 c8 -5 11 -10 5 -10 -5 0 -17 5 -25 10 -8 5
-10 10 -5 10 6 0 17 -5 25 -10z m-2275 -50 c100 -15 396 -125 380 -142 -4 -3
-2 -9 4 -13 6 -3 11 -2 11 4 0 6 7 8 15 5 13 -5 13 -9 3 -23 -11 -14 -11 -14
3 -3 14 11 26 7 78 -23 36 -22 59 -41 55 -47 -4 -7 -2 -8 4 -4 20 12 134 -114
175 -193 32 -63 37 -82 37 -140 0 -165 -139 -302 -365 -363 -93 -25 -277 -34
-388 -19 -158 21 -335 93 -458 188 -148 112 -259 307 -259 453 0 92 142 254
255 290 100 33 327 47 450 30z m481 -66 c18 -14 18 -14 -6 -3 -31 14 -36 19
-24 19 6 0 19 -7 30 -16z m106 -68 c-3 -5 2 -7 11 -3 10 4 14 2 11 -6 -3 -8 4
-13 17 -14 64 -5 217 -154 274 -267 66 -130 61 -266 -12 -322 -29 -22 -34 -23
-39 -9 -4 9 -3 37 2 63 5 26 9 83 8 127 0 69 -5 90 -31 148 -44 93 -79 132
-209 238 -63 50 -114 93 -114 95 0 2 20 -7 44 -19 24 -12 41 -26 38 -31z
m-1399 -143 c30 -4 37 -9 32 -22 -4 -9 -18 -54 -32 -101 -32 -110 -44 -123
-106 -117 -93 9 -133 83 -88 167 36 69 93 90 194 73z m4035 -63 c26 0 82 -29
82 -43 0 -9 -82 1 -120 15 -27 10 -70 47 -70 59 0 5 19 -1 43 -11 23 -11 53
-20 65 -20z m49 24 c-3 -3 -12 -4 -19 -1 -8 3 -5 6 6 6 11 1 17 -2 13 -5z
m-4352 -160 c8 -35 73 -93 118 -105 23 -6 48 -13 55 -15 17 -5 15 -24 -8 -62
-37 -61 -99 -64 -147 -8 -62 74 -77 161 -41 241 l13 30 3 -30 c1 -17 5 -40 7
-51z m4531 -129 c-9 -14 -51 -41 -94 -61 -42 -21 -81 -40 -86 -42 -5 -3 -6 1
-1 7 4 7 38 28 76 46 78 37 95 52 106 91 7 27 8 27 11 6 2 -13 -4 -34 -12 -47z
m21 -126 l28 -11 -24 -9 c-30 -12 -209 -25 -199 -15 3 4 32 18 65 32 57 24 76
24 130 3z m-2483 -150 c-1 -97 -73 -209 -134 -209 -75 0 -125 61 -96 117 14
28 111 119 166 156 21 14 27 15 45 3 16 -11 20 -24 19 -67z m-1509 61 c3 -6
-1 -7 -9 -4 -18 7 -21 14 -7 14 6 0 13 -4 16 -10z m2526 -127 c45 -65 127
-190 182 -278 54 -88 117 -181 138 -207 l40 -47 -28 -42 c-27 -41 -28 -42 -38
-18 -5 13 -41 76 -79 139 -74 124 -306 549 -306 562 0 18 13 3 91 -109z
m-2634 57 c123 -43 168 -97 122 -147 -35 -37 -63 -44 -131 -33 -96 15 -169 76
-172 143 -2 57 77 74 181 37z m4297 -96 c9 -8 16 -20 16 -25 0 -6 -7 -3 -16 5
-21 22 -79 20 -149 -4 -104 -36 -116 -20 -15 18 67 26 142 28 164 6z m-4498
-45 c32 -29 87 -65 123 -81 74 -34 93 -47 86 -58 -7 -11 -59 15 -130 66 -68
48 -154 123 -143 124 4 0 33 -23 64 -51z m704 -100 c90 -19 141 -98 86 -134
-33 -22 -153 -31 -200 -15 -44 14 -106 73 -106 99 0 51 106 75 220 50z m709
-13 c31 -28 26 -63 -14 -103 l-35 -35 -107 4 c-78 2 -118 8 -144 21 -37 18
-67 63 -52 78 4 4 46 19 93 33 106 32 225 33 259 2z m531 -66 c-46 -38 -65
-38 -22 0 18 17 38 30 45 30 6 0 -4 -14 -23 -30z m-70 -49 c0 -5 -7 -12 -16
-15 -14 -5 -15 -4 -4 9 14 17 20 19 20 6z m-1420 -23 c8 3 12 1 8 -3 -11 -12
82 -43 192 -65 69 -13 84 -18 55 -19 -22 0 -69 6 -103 14 -66 16 -210 71 -227
87 -5 6 6 3 25 -4 19 -8 42 -13 50 -10z m1380 -6 c0 -5 -12 -14 -27 -21 l-28
-13 20 21 c21 21 35 26 35 13z m2755 -12 c-25 -28 -139 -83 -162 -78 -12 3 6
15 52 36 39 18 81 38 95 47 34 20 36 19 15 -5z m-2815 -30 c0 -5 -7 -10 -16
-10 -8 0 -12 5 -9 10 3 6 10 10 16 10 5 0 9 -4 9 -10z m1824 -6 c17 -17 20
-25 9 -22 -5 0 -15 -2 -23 -5 -8 -3 -53 -16 -100 -27 -130 -33 -124 -25 -118
-144 3 -55 3 -107 1 -113 -8 -22 -23 -14 -23 11 0 14 -9 62 -20 108 -44 183
-26 205 162 207 75 1 100 -2 112 -15z m-1864 -8 c0 -2 -7 -7 -16 -10 -8 -3
-12 -2 -9 4 6 10 25 14 25 6z m7 -72 c-3 -3 -12 -4 -19 -1 -8 3 -5 6 6 6 11 1
17 -2 13 -5z m40 -20 c-3 -3 -12 -4 -19 -1 -8 3 -5 6 6 6 11 1 17 -2 13 -5z
m200 -10 c-3 -3 -12 -4 -19 -1 -8 3 -5 6 6 6 11 1 17 -2 13 -5z m-239 -21
c-10 -2 -28 -2 -40 0 -13 2 -5 4 17 4 22 1 32 -1 23 -4z m272 -3 c10 -7 -24
-9 -105 -8 l-120 2 100 6 c55 3 102 7 105 8 3 1 12 -3 20 -8z m2470 -90 c-20
-13 -103 -13 -95 0 3 6 30 10 58 10 37 0 48 -3 37 -10z m10 -164 c0 -28 -105
-46 -155 -27 -13 5 -1 10 44 14 34 4 70 11 79 17 24 13 32 12 32 -4z m-5660
-86 c0 -5 -4 -10 -10 -10 -5 0 -10 5 -10 10 0 6 5 10 10 10 6 0 10 -4 10 -10z
m-103 -32 c-3 -8 -6 -5 -6 6 -1 11 2 17 5 13 3 -3 4 -12 1 -19z m-30 -30 c-3
-8 -6 -5 -6 6 -1 11 2 17 5 13 3 -3 4 -12 1 -19z m1083 4 c0 -4 -16 -8 -35 -8
-19 0 -35 4 -35 8 0 4 16 8 35 8 19 0 35 -4 35 -8z m-1420 -57 c6 17 7 17 12
-7 3 -15 1 -25 -3 -22 -5 3 -9 0 -9 -5 0 -6 6 -11 14 -11 7 0 19 -7 26 -15 7
-8 22 -15 33 -15 21 0 21 0 1 -16 -18 -15 -18 -15 8 -10 14 3 34 9 44 13 12 4
15 3 10 -5 -4 -7 -13 -12 -21 -12 -8 0 -17 -5 -21 -11 -4 -8 3 -9 24 -4 43 9
132 12 132 5 0 -4 -10 -12 -22 -19 -13 -6 -15 -9 -6 -7 33 9 93 16 77 9 -27
-13 0 -28 51 -30 37 -2 41 0 20 7 -19 7 -14 8 19 3 24 -3 110 -6 190 -8 80 -1
167 -5 193 -10 54 -9 92 0 68 15 -12 8 -10 10 8 10 12 0 22 -6 22 -14 0 -11
31 -13 178 -10 97 2 203 4 235 3 39 0 62 5 73 15 20 20 48 20 64 1 14 -17 50
-20 50 -5 0 6 -9 10 -19 10 -10 0 -21 7 -24 14 -6 15 4 14 48 -4 11 -5 27 -11
35 -13 11 -4 10 -7 -7 -13 -13 -6 58 -9 185 -10 114 0 180 3 147 6 -33 4 -49
8 -35 10 14 1 30 1 35 0 6 -1 37 -2 70 -3 46 0 53 -2 30 -8 -16 -3 74 -8 200
-10 186 -2 146 -4 -210 -9 -573 -8 -1416 -2 -1575 11 -122 10 -260 34 -350 62
-39 12 -45 18 -42 38 2 13 7 25 11 27 3 1 5 23 4 50 l-2 47 10 -35 c10 -30 12
-32 19 -15z m4620 41 c0 -2 -12 -11 -27 -20 l-28 -17 24 20 c23 21 31 25 31
17z m5 -26 c-3 -5 -16 -15 -28 -21 -21 -10 -21 -9 2 10 25 23 36 27 26 11z
m-65 -13 c0 -2 -10 -12 -22 -23 l-23 -19 19 23 c18 21 26 27 26 19z m1300 -15
c-13 -9 -58 -41 -99 -71 -88 -62 -101 -68 -101 -48 0 20 13 29 121 87 97 51
122 61 79 32z m-3375 -2 c-19 -8 -19 -9 -1 -9 11 -1 17 -3 14 -6 -3 -4 -18 -3
-34 1 -25 6 -26 8 -9 15 28 11 55 10 30 -1z m142 4 c-3 -3 -12 -4 -19 -1 -8 3
-5 6 6 6 11 1 17 -2 13 -5z m2853 -6 c0 -18 -131 -78 -169 -78 -39 0 -78 19
-111 55 l-25 27 40 -27 c47 -32 89 -29 163 10 51 26 102 33 102 13z m-2912 -5
c-10 -2 -26 -2 -35 0 -10 3 -2 5 17 5 19 0 27 -2 18 -5z m1892 -48 c-14 -8
-32 -14 -40 -14 -8 0 -1 7 15 14 39 18 57 18 25 0z m980 -36 c-39 -34 -70 -49
-102 -49 -12 0 11 17 53 39 91 47 92 47 49 10z m-5220 11 c-8 -5 -22 -9 -30
-9 -10 0 -8 3 5 9 27 12 43 12 25 0z m4186 -6 c18 -14 18 -14 -6 -3 -31 14
-36 19 -24 19 6 0 19 -7 30 -16z m121 0 c-3 -3 -12 -4 -19 -1 -8 3 -5 6 6 6
11 1 17 -2 13 -5z m-210 -11 c-9 -2 -15 -8 -12 -12 2 -5 -8 -6 -23 -3 l-27 6
25 7 c14 4 32 7 40 7 10 0 9 -2 -3 -5z m-3070 -9 c-3 -3 -12 -4 -19 -1 -8 3
-5 6 6 6 11 1 17 -2 13 -5z m450 0 c-3 -3 -12 -4 -19 -1 -8 3 -5 6 6 6 11 1
17 -2 13 -5z m-1314 -11 c-7 -2 -19 -2 -25 0 -7 3 -2 5 12 5 14 0 19 -2 13 -5z
m120 0 c-7 -2 -19 -2 -25 0 -7 3 -2 5 12 5 14 0 19 -2 13 -5z m255 0 c-10 -2
-26 -2 -35 0 -10 3 -2 5 17 5 19 0 27 -2 18 -5z m90 0 c-10 -2 -28 -2 -40 0
-13 2 -5 4 17 4 22 1 32 -1 23 -4z m742 -3 c0 -5 -2 -10 -4 -10 -3 0 -8 5 -11
10 -3 6 -1 10 4 10 6 0 11 -4 11 -10z m180 0 c24 -8 24 -8 3 -9 -13 -1 -23 -5
-23 -11 0 -5 -17 -10 -37 -9 l-38 1 40 12 c32 10 36 14 20 18 -11 3 -13 6 -5
6 8 0 26 -4 40 -8z m647 4 c-3 -3 -12 -4 -19 -1 -8 3 -5 6 6 6 11 1 17 -2 13
-5z m1830 0 c-4 -4 -26 -8 -49 -9 -34 -3 -37 -1 -18 5 31 10 76 12 67 4z
m-3047 -14 c0 -5 -12 -10 -27 -9 l-28 1 25 8 c14 4 26 8 28 9 1 1 2 -3 2 -9z
m503 3 c-7 -2 -19 -2 -25 0 -7 3 -2 5 12 5 14 0 19 -2 13 -5z m180 0 c-7 -2
-19 -2 -25 0 -7 3 -2 5 12 5 14 0 19 -2 13 -5z m137 -8 c19 -7 28 -14 19 -14
-9 -1 -32 6 -50 14 -43 18 -16 18 31 0z m317 9 c-3 -3 -12 -4 -19 -1 -8 3 -5
6 6 6 11 1 17 -2 13 -5z m320 0 c-3 -3 -12 -4 -19 -1 -8 3 -5 6 6 6 11 1 17
-2 13 -5z m68 -3 c-11 -3 18 -9 65 -12 l85 -5 -105 -2 c-96 -1 -103 0 -80 13
14 8 32 14 40 13 9 0 7 -3 -5 -7z m1422 3 c-3 -3 -12 -4 -19 -1 -8 3 -5 6 6 6
11 1 17 -2 13 -5z m-3359 -11 c-10 -2 -26 -2 -35 0 -10 3 -2 5 17 5 19 0 27
-2 18 -5z m275 0 c-7 -2 -21 -2 -30 0 -10 3 -4 5 12 5 17 0 24 -2 18 -5z
m1347 -3 c-16 -5 26 -9 115 -11 l140 -3 -120 -4 c-132 -3 -205 4 -170 18 11 5
29 8 40 8 16 0 15 -2 -5 -8z m588 3 c-21 -2 -55 -2 -75 0 -21 2 -4 4 37 4 41
0 58 -2 38 -4z m1050 0 c-16 -2 -40 -2 -55 0 -16 2 -3 4 27 4 30 0 43 -2 28
-4z m239 1 c-3 -3 -12 -4 -19 -1 -8 3 -5 6 6 6 11 1 17 -2 13 -5z m-369 -11
c-21 -2 -57 -2 -80 0 -24 2 -7 4 37 4 44 0 63 -2 43 -4z m320 -5 c-2 -6 -11
-13 -19 -16 -12 -3 -12 -2 0 6 11 8 9 11 -10 15 -22 4 -22 4 4 6 18 0 27 -3
25 -11z m-525 -5 c-7 -2 -21 -2 -30 0 -10 3 -4 5 12 5 17 0 24 -2 18 -5z
m-3524 -64 c50 -7 87 -15 82 -18 -29 -19 1533 -20 1974 -2 178 7 293 8 315 2
28 -8 22 -9 -30 -5 -48 4 -61 3 -50 -5 11 -8 6 -9 -20 -5 -29 6 -33 4 -22 -7
19 -20 15 -77 -5 -82 -10 -3 23 -6 72 -8 75 -3 63 -4 -70 -9 -159 -6 -159 -6
-50 -9 110 -3 110 -3 55 -14 l-55 -11 40 -7 c22 -3 -113 -7 -300 -8 -391 -2
-875 -23 -1210 -53 -71 -6 -259 -12 -418 -13 l-287 -2 -38 24 c-35 23 -35 22
10 -20 55 -52 133 -76 245 -78 l68 -1 -70 -14 c-44 -9 -106 -13 -165 -11 -83
3 -106 9 -180 41 -46 20 -90 42 -97 48 -10 8 -13 51 -13 163 l0 152 64 -17
c35 -10 104 -24 155 -31z m3028 35 c-3 -3 -12 -4 -19 -1 -8 3 -5 6 6 6 11 1
17 -2 13 -5z m-239 -21 c-10 -2 -28 -2 -40 0 -13 2 -5 4 17 4 22 1 32 -1 23
-4z m1699 -15 c-3 -8 -6 -5 -6 6 -1 11 2 17 5 13 3 -3 4 -12 1 -19z m-1849 5
c-10 -2 -26 -2 -35 0 -10 3 -2 5 17 5 19 0 27 -2 18 -5z m69 1 c-3 -3 -12 -4
-19 -1 -8 3 -5 6 6 6 11 1 17 -2 13 -5z m-190 -11 c-20 -2 -52 -2 -70 0 -17 2
0 4 38 4 39 0 53 -2 32 -4z m430 1 c-3 -3 -12 -4 -19 -1 -8 3 -5 6 6 6 11 1
17 -2 13 -5z m-354 -11 c-7 -2 -19 -2 -25 0 -7 3 -2 5 12 5 14 0 19 -2 13 -5z
m-110 -10 c-7 -2 -21 -2 -30 0 -10 3 -4 5 12 5 17 0 24 -2 18 -5z m1969 -35
c-7 -7 -12 -8 -12 -2 0 14 12 26 19 19 2 -3 -1 -11 -7 -17z m-62 -31 c-14 -8
-27 -12 -30 -10 -7 6 23 23 40 23 8 0 4 -6 -10 -13z m-1327 -54 c-13 -2 -33
-2 -45 0 -13 2 -3 4 22 4 25 0 35 -2 23 -4z m370 0 c-7 -2 -19 -2 -25 0 -7 3
-2 5 12 5 14 0 19 -2 13 -5z m470 -10 c-35 -2 -91 -2 -125 0 -35 2 -7 3 62 3
69 0 97 -1 63 -3z m-360 -10 c-13 -2 -33 -2 -45 0 -13 2 -3 4 22 4 25 0 35 -2
23 -4z m-560 -10 c-13 -2 -33 -2 -45 0 -13 2 -3 4 22 4 25 0 35 -2 23 -4z
m-510 -10 c-7 -2 -19 -2 -25 0 -7 3 -2 5 12 5 14 0 19 -2 13 -5z m-1518 -133
c47 -7 45 -7 -30 -8 -44 0 -91 4 -105 8 -34 11 66 11 135 0z m-402 -7 c-7 -2
-19 -2 -25 0 -7 3 -2 5 12 5 14 0 19 -2 13 -5z m170 0 c-24 -2 -62 -2 -85 0
-24 2 -5 4 42 4 47 0 66 -2 43 -4z m910 -10 c-51 -2 -136 -2 -190 0 -54 1 -12
3 92 3 105 0 149 -2 98 -3z m230 0 c-13 -2 -33 -2 -45 0 -13 2 -3 4 22 4 25 0
35 -2 23 -4z"/>
<path d="M7694 6601 c-47 -6 -112 -36 -101 -47 3 -3 23 4 46 15 22 12 57 21
78 21 21 0 45 5 53 10 17 11 8 11 -76 1z"/>
<path d="M7790 6600 c0 -5 5 -10 10 -10 6 0 10 5 10 10 0 6 -4 10 -10 10 -5 0
-10 -4 -10 -10z"/>
<path d="M7815 6175 l-30 -13 38 1 c23 1 37 6 37 14 0 16 -6 15 -45 -2z"/>
<path d="M7659 6146 c-83 -30 -118 -48 -101 -54 6 -2 27 5 44 16 18 11 59 26
90 33 31 7 54 17 52 21 -7 11 -10 10 -85 -16z"/>
<path d="M7515 6079 c-4 -6 -5 -12 -2 -15 2 -3 7 2 10 11 7 17 1 20 -8 4z"/>
<path d="M7440 6038 c0 -19 2 -20 10 -8 13 19 13 30 0 30 -5 0 -10 -10 -10
-22z"/>
<path d="M8082 6020 c0 -14 2 -19 5 -12 2 6 2 18 0 25 -3 6 -5 1 -5 -13z"/>
<path d="M7458 6003 c7 -3 16 -2 19 1 4 3 -2 6 -13 5 -11 0 -14 -3 -6 -6z"/>
<path d="M7498 5423 c7 -3 16 -2 19 1 4 3 -2 6 -13 5 -11 0 -14 -3 -6 -6z"/>
<path d="M7568 5423 c6 -2 18 -2 25 0 6 3 1 5 -13 5 -14 0 -19 -2 -12 -5z"/>
<path d="M7238 6273 c7 -3 16 -2 19 1 4 3 -2 6 -13 5 -11 0 -14 -3 -6 -6z"/>
<path d="M6953 5705 c0 -22 2 -30 4 -17 2 12 2 30 0 40 -3 9 -5 -1 -4 -23z"/>
<path d="M7945 5661 c-3 -5 -1 -12 5 -16 5 -3 10 1 10 9 0 18 -6 21 -15 7z"/>
<path d="M7800 4997 c0 -15 -5 -27 -11 -27 -5 0 -7 -5 -3 -11 4 -8 9 -7 15 2
12 20 23 3 23 -36 0 -21 3 -30 8 -22 6 9 8 9 8 -1 0 -7 4 -11 9 -8 8 5 -27
108 -43 123 -3 3 -6 -6 -6 -20z"/>
<path d="M7547 4883 c-4 -3 -7 -13 -7 -22 1 -13 3 -13 11 2 11 19 8 33 -4 20z"/>
<path d="M6950 4550 c-9 -6 -10 -10 -3 -10 6 0 15 5 18 10 8 12 4 12 -15 0z"/>
<path d="M7423 4434 c-3 -8 -2 -19 3 -24 5 -5 9 1 9 16 0 28 -3 30 -12 8z"/>
<path d="M7578 4413 c7 -3 16 -2 19 1 4 3 -2 6 -13 5 -11 0 -14 -3 -6 -6z"/>
<path d="M7614 4378 l-19 -23 23 19 c12 11 22 21 22 23 0 8 -8 2 -26 -19z"/>
<path d="M7400 4381 c0 -10 19 -25 25 -20 1 2 -3 10 -11 17 -8 7 -14 8 -14 3z"/>
<path d="M7198 4343 c7 -3 16 -2 19 1 4 3 -2 6 -13 5 -11 0 -14 -3 -6 -6z"/>
<path d="M7507 4330 c-9 -11 -24 -20 -34 -20 -13 0 -14 -3 -6 -11 9 -9 21 -8
48 5 30 14 34 20 24 32 -14 17 -11 18 -32 -6z"/>
<path d="M7265 4290 c12 -5 14 -9 6 -9 -8 -1 -12 -3 -10 -6 3 -2 16 -1 29 2
22 6 23 7 4 14 -27 11 -54 10 -29 -1z"/>
<path d="M6945 3410 c-3 -5 -1 -10 4 -10 6 0 11 5 11 10 0 6 -2 10 -4 10 -3 0
-8 -4 -11 -10z"/>
<path d="M2802 4255 c0 -16 2 -22 5 -12 2 9 2 23 0 30 -3 6 -5 -1 -5 -18z"/>
<path d="M2771 4263 c0 -4 4 -17 9 -28 8 -19 9 -19 9 2 1 12 -3 25 -9 28 -5 3
-10 3 -9 -2z"/>
<path d="M2612 3420 c0 -14 2 -19 5 -12 2 6 2 18 0 25 -3 6 -5 1 -5 -13z"/>
<path d="M2601 3374 c0 -11 3 -14 6 -6 3 7 2 16 -1 19 -3 4 -6 -2 -5 -13z"/>
<path d="M6120 3331 c0 -6 4 -13 10 -16 6 -3 7 1 4 9 -7 18 -14 21 -14 7z"/>
<path d="M6156 3275 c24 -39 24 -40 24 -28 0 6 -9 21 -21 34 l-20 24 17 -30z"/>
<path d="M2577 3125 c-4 -8 -2 -17 3 -20 6 -4 10 3 10 14 0 25 -6 27 -13 6z"/>
<path d="M6220 3006 c0 -13 -13 -39 -30 -57 -16 -19 -30 -38 -29 -44 0 -5 15
8 34 29 23 25 35 50 35 68 0 15 -2 28 -5 28 -3 0 -5 -11 -5 -24z"/>
<path d="M6164 2975 c0 -19 3 -32 8 -29 10 6 11 51 1 57 -5 3 -8 -10 -9 -28z"/>
<path d="M2755 2670 c-4 -6 7 -10 25 -10 18 0 29 4 25 10 -3 6 -15 10 -25 10
-10 0 -22 -4 -25 -10z"/>
<path d="M2858 2653 c7 -3 16 -2 19 1 4 3 -2 6 -13 5 -11 0 -14 -3 -6 -6z"/>
<path d="M3323 2583 c9 -2 23 -2 30 0 6 3 -1 5 -18 5 -16 0 -22 -2 -12 -5z"/>
<path d="M3620 2540 c8 -5 31 -9 50 -9 32 1 33 2 10 9 -14 4 -36 8 -50 9 -20
1 -22 -1 -10 -9z"/>
<path d="M3738 2523 c7 -3 16 -2 19 1 4 3 -2 6 -13 5 -11 0 -14 -3 -6 -6z"/>
<path d="M3848 2513 c7 -3 16 -2 19 1 4 3 -2 6 -13 5 -11 0 -14 -3 -6 -6z"/>
<path d="M3732 2495 c7 -7 219 -7 226 0 3 3 -48 5 -113 5 -65 0 -116 -2 -113
-5z"/>
<path d="M4058 2483 c7 -3 16 -2 19 1 4 3 -2 6 -13 5 -11 0 -14 -3 -6 -6z"/>
<path d="M4298 2443 c7 -3 16 -2 19 1 4 3 -2 6 -13 5 -11 0 -14 -3 -6 -6z"/>
<path d="M4225 2430 c3 -5 8 -10 11 -10 2 0 4 5 4 10 0 6 -5 10 -11 10 -5 0
-7 -4 -4 -10z"/>
<path d="M4548 2413 c6 -2 18 -2 25 0 6 3 1 5 -13 5 -14 0 -19 -2 -12 -5z"/>
<path d="M4693 4225 c-86 -16 -166 -54 -233 -113 -128 -111 -88 -290 85 -387
78 -44 172 -65 295 -65 124 0 212 15 280 48 30 14 61 26 68 25 7 -1 11 1 8 4
-3 3 15 28 39 55 64 71 77 128 49 203 -9 22 -16 45 -16 52 -1 7 -5 10 -9 7
-11 -6 -39 37 -32 49 3 6 1 7 -5 3 -7 -4 -27 4 -45 18 -78 60 -255 117 -356
115 -31 0 -88 -7 -128 -14z m213 -98 c-6 -5 3 -5 21 -2 17 3 40 2 50 -4 19
-10 51 -22 68 -26 70 -16 150 -81 165 -133 15 -56 13 -68 -21 -107 -104 -118
-425 -154 -598 -66 -76 39 -123 121 -107 185 14 58 92 114 179 130 21 4 35 11
32 16 -3 5 3 11 12 13 30 8 212 3 199 -6z"/>
<path d="M4948 4113 c7 -3 16 -2 19 1 4 3 -2 6 -13 5 -11 0 -14 -3 -6 -6z"/>
<path d="M4808 4103 c7 -3 16 -2 19 1 4 3 -2 6 -13 5 -11 0 -14 -3 -6 -6z"/>
<path d="M4858 4103 c7 -3 16 -2 19 1 4 3 -2 6 -13 5 -11 0 -14 -3 -6 -6z"/>
<path d="M4948 4093 c7 -3 16 -2 19 1 4 3 -2 6 -13 5 -11 0 -14 -3 -6 -6z"/>
<path d="M4769 4012 c10 -19 37 -44 61 -57 8 -4 -3 11 -25 34 -43 45 -51 50
-36 23z"/>
<path d="M4601 3973 c1 -22 2 -23 6 -8 3 11 10 23 17 27 7 5 5 8 -6 8 -13 0
-18 -7 -17 -27z"/>
<path d="M4617 3923 c-3 -5 -1 -17 4 -28 6 -17 7 -16 6 8 -1 28 -3 32 -10 20z"/>
<path d="M4910 3896 c0 -2 7 -9 15 -16 9 -7 15 -8 15 -2 0 5 -7 12 -15 16 -8
3 -15 4 -15 2z"/>
<path d="M4994 3846 c11 -9 27 -16 35 -15 14 0 14 1 1 6 -8 3 -24 10 -35 15
-20 9 -20 9 -1 -6z"/>
<path d="M5110 4179 c0 -5 5 -7 10 -4 6 3 10 8 10 11 0 2 -4 4 -10 4 -5 0 -10
-5 -10 -11z"/>
<path d="M5123 3649 c-115 -47 -328 -56 -453 -19 -52 15 -70 13 -70 -10 0 -12
12 -26 30 -35 42 -22 153 -46 221 -48 33 -1 59 -5 59 -9 0 -10 51 -10 116 -1
36 5 43 8 29 14 -15 6 -12 8 15 8 38 1 132 32 156 52 9 7 14 25 12 43 -4 41
-25 42 -115 5z"/>
<path d="M2440 2270 c0 -5 5 -10 10 -10 6 0 10 5 10 10 0 6 -4 10 -10 10 -5 0
-10 -4 -10 -10z"/>
<path d="M2568 2223 c6 -2 18 -2 25 0 6 3 1 5 -13 5 -14 0 -19 -2 -12 -5z"/>
<path d="M3788 2188 c9 -9 15 -9 24 0 9 9 7 12 -12 12 -19 0 -21 -3 -12 -12z"/>
<path d="M2938 2183 c34 -2 90 -2 125 0 34 2 6 3 -63 3 -69 0 -97 -1 -62 -3z"/>
<path d="M4808 2093 c7 -3 16 -2 19 1 4 3 -2 6 -13 5 -11 0 -14 -3 -6 -6z"/>
<path d="M4608 2083 c12 -2 30 -2 40 0 9 3 -1 5 -23 4 -22 0 -30 -2 -17 -4z"/>
<path d="M2615 1880 c3 -5 8 -10 11 -10 2 0 4 5 4 10 0 6 -5 10 -11 10 -5 0
-7 -4 -4 -10z"/>
<path d="M3575 7163 c-167 -176 -479 -679 -510 -821 -6 -31 -5 -33 16 -30 18
2 47 44 134 188 119 199 257 410 367 558 37 50 68 94 68 96 0 8 -31 36 -40 36
-5 0 -21 -12 -35 -27z"/>
<path d="M4705 7098 c-4 -13 -12 -36 -20 -53 -12 -29 -31 -92 -19 -68 3 7 11
10 19 7 7 -3 15 3 18 13 3 10 3 -11 1 -47 -1 -36 -1 -54 2 -40 13 70 15 74 25
59 7 -10 8 -7 4 11 -2 14 -7 49 -9 78 -5 61 -11 74 -21 40z"/>
<path d="M6285 7100 c3 -5 11 -10 16 -10 6 0 7 5 4 10 -3 6 -11 10 -16 10 -6
0 -7 -4 -4 -10z"/>
<path d="M6060 7030 c-9 -6 -10 -10 -3 -10 6 0 15 5 18 10 8 12 4 12 -15 0z"/>
<path d="M6275 7029 c-4 -6 -4 -13 -1 -16 3 -4 6 -1 6 6 0 8 6 11 16 7 8 -3
12 -2 9 4 -8 13 -22 13 -30 -1z"/>
<path d="M6009 7028 c-5 -18 -6 -38 -1 -34 7 8 12 36 6 36 -2 0 -4 -1 -5 -2z"/>
<path d="M6094 7016 c-17 -8 -50 -26 -73 -40 -23 -15 -47 -24 -53 -20 -6 4 -8
3 -5 -3 4 -6 -3 -19 -14 -29 -33 -29 -42 -53 -28 -70 16 -20 42 -17 73 7 47
37 138 79 171 79 18 0 39 -8 48 -17 9 -11 24 -70 36 -141 11 -67 27 -135 36
-151 8 -16 38 -49 67 -74 67 -56 286 -203 332 -222 70 -29 169 -11 220 40 20
20 20 8 1 -38 -8 -20 -15 -57 -15 -82 0 -74 27 -56 83 55 45 88 48 99 45 158
-4 57 -2 62 17 62 51 0 63 73 19 117 -24 23 -30 25 -88 18 -76 -8 -167 15
-202 50 -13 13 -25 20 -28 17 -3 -3 -6 0 -6 6 0 6 -8 13 -19 17 -58 18 -71
-48 -18 -98 17 -16 31 -34 29 -39 -1 -5 2 -7 7 -4 5 3 28 -1 52 -10 26 -9 80
-17 134 -17 74 -2 90 -5 93 -18 2 -11 -6 -19 -21 -23 -13 -3 -41 -20 -63 -37
-90 -73 -171 -86 -261 -45 -56 26 -176 104 -181 118 -2 4 -7 6 -12 3 -11 -7
-65 56 -89 103 -10 20 -27 78 -36 127 -21 108 -52 174 -93 198 -36 20 -114 22
-158 3z"/>
<path d="M6371 7004 c0 -11 3 -14 6 -6 3 7 2 16 -1 19 -3 4 -6 -2 -5 -13z"/>
<path d="M5920 6999 c0 -5 5 -7 10 -4 6 3 10 8 10 11 0 2 -4 4 -10 4 -5 0 -10
-5 -10 -11z"/>
<path d="M6941 6984 c-7 -8 -10 -18 -6 -22 3 -4 11 1 16 11 6 9 14 15 20 12 5
-4 9 -1 9 4 0 16 -23 13 -39 -5z"/>
<path d="M6390 6984 c0 -8 22 -28 53 -49 45 -29 38 -13 -9 22 -24 18 -44 30
-44 27z"/>
<path d="M6965 6958 c6 -14 1 -16 -24 -13 -29 4 -30 3 -16 -12 9 -9 13 -19 8
-22 -4 -3 -12 -11 -17 -16 -6 -6 -7 -4 -3 7 3 9 0 19 -8 21 -9 4 -12 -2 -10
-19 1 -13 -2 -27 -7 -30 -4 -3 -7 0 -6 8 2 7 -3 13 -9 12 -7 -1 -47 -2 -88 -2
-60 -2 -75 -5 -75 -17 0 -9 11 -21 25 -27 25 -11 33 -32 15 -43 -5 -3 -6 -13
-3 -23 3 -9 -4 -5 -16 11 -23 28 -41 28 -41 0 0 -10 6 -13 16 -9 8 3 13 2 11
-2 -3 -4 1 -12 8 -19 10 -10 16 -9 25 2 6 8 9 18 6 23 -3 5 1 9 8 9 9 0 12 -7
8 -16 -4 -12 1 -11 19 5 13 11 54 42 92 68 78 54 107 90 88 109 -10 9 -11 8
-6 -5z m-130 -118 c-3 -5 -12 -10 -18 -10 -7 0 -6 4 3 10 19 12 23 12 15 0z"/>
<path d="M5933 6945 c0 -8 4 -12 9 -9 5 3 6 10 3 15 -9 13 -12 11 -12 -6z"/>
<path d="M4725 6940 c3 -5 8 -10 11 -10 2 0 4 5 4 10 0 6 -5 10 -11 10 -5 0
-7 -4 -4 -10z"/>
<path d="M6500 6910 c0 -6 7 -10 15 -10 8 0 15 2 15 4 0 2 -7 6 -15 10 -8 3
-15 1 -15 -4z"/>
<path d="M4720 6901 c0 -5 5 -13 10 -16 6 -3 10 -2 10 4 0 5 -4 13 -10 16 -5
3 -10 2 -10 -4z"/>
<path d="M6520 6890 c-20 -6 -21 -8 -5 -8 11 0 29 3 40 8 25 11 -1 11 -35 0z"/>
<path d="M4752 6870 c-15 -25 -15 -33 1 -23 6 4 20 6 30 5 17 -3 17 -3 0 17
-9 12 -18 21 -18 21 0 0 -6 -9 -13 -20z"/>
<path d="M6616 6869 c12 -13 20 -16 22 -9 3 7 -2 16 -9 21 -25 16 -32 9 -13
-12z"/>
<path d="M6381 6844 c0 -11 3 -14 6 -6 3 7 2 16 -1 19 -3 4 -6 -2 -5 -13z"/>
<path d="M4760 6819 c0 -5 5 -7 10 -4 6 3 10 8 10 11 0 2 -4 4 -10 4 -5 0 -10
-5 -10 -11z"/>
<path d="M5870 6823 c0 -6 8 -17 18 -24 16 -13 16 -13 2 6 -8 11 -16 22 -17
24 -2 2 -3 0 -3 -6z"/>
<path d="M4756 6785 c-11 -8 -15 -15 -9 -15 7 0 15 5 18 10 3 6 11 10 16 10 6
0 8 -4 4 -9 -3 -5 -1 -12 4 -15 5 -4 8 2 7 11 -4 23 -17 25 -40 8z"/>
<path d="M5760 6789 c0 -5 5 -7 10 -4 6 3 10 8 10 11 0 2 -4 4 -10 4 -5 0 -10
-5 -10 -11z"/>
<path d="M5866 6787 c3 -10 9 -15 12 -12 3 3 0 11 -7 18 -10 9 -11 8 -5 -6z"/>
<path d="M6647 6779 c7 -7 15 -10 18 -7 3 3 -2 9 -12 12 -14 6 -15 5 -6 -5z"/>
<path d="M5418 6763 c7 -3 16 -2 19 1 4 3 -2 6 -13 5 -11 0 -14 -3 -6 -6z"/>
<path d="M5178 6753 c7 -3 16 -2 19 1 4 3 -2 6 -13 5 -11 0 -14 -3 -6 -6z"/>
<path d="M5128 6733 c6 -2 18 -2 25 0 6 3 1 5 -13 5 -14 0 -19 -2 -12 -5z"/>
<path d="M5328 6733 c6 -2 18 -2 25 0 6 3 1 5 -13 5 -14 0 -19 -2 -12 -5z"/>
<path d="M4854 6668 c-10 -12 -13 -18 -5 -13 8 4 16 2 21 -5 5 -8 8 -3 7 13
-1 15 -2 27 -3 27 0 0 -9 -10 -20 -22z"/>
<path d="M6540 6666 c0 -9 5 -16 10 -16 6 0 10 4 10 9 0 6 -4 13 -10 16 -5 3
-10 -1 -10 -9z"/>
<path d="M6441 6654 c0 -11 3 -14 6 -6 3 7 2 16 -1 19 -3 4 -6 -2 -5 -13z"/>
<path d="M6469 6648 c0 -2 -2 -13 -3 -24 -2 -19 0 -20 16 -10 16 9 16 12 3 14
-8 2 -13 8 -10 13 4 5 4 9 1 9 -3 0 -6 -1 -7 -2z"/>
<path d="M5090 6588 c-81 -37 -187 -134 -168 -154 3 -3 30 10 59 28 30 19 76
45 103 58 26 14 60 37 74 52 14 15 30 24 35 21 6 -3 7 -1 3 5 -11 18 -56 14
-106 -10z"/>
<path d="M5775 6599 c-4 -6 -5 -12 -2 -15 2 -3 7 2 10 11 7 17 1 20 -8 4z"/>
<path d="M6505 6580 c10 -11 20 -18 23 -16 5 6 -23 36 -34 36 -4 0 1 -9 11
-20z"/>
<path d="M5143 6536 c-30 -14 -29 -24 2 -18 14 2 25 11 25 18 0 8 -1 13 -2 13
-2 -1 -13 -6 -25 -13z"/>
<path d="M5700 6536 c0 -2 8 -10 18 -17 15 -13 16 -12 3 4 -13 16 -21 21 -21
13z"/>
<path d="M4922 6518 c-7 -7 -12 -16 -12 -21 0 -5 7 -1 16 8 9 9 14 18 12 20
-2 3 -10 -1 -16 -7z"/>
<path d="M5694 6512 c4 -7 2 -21 -5 -30 -12 -15 -11 -15 6 0 16 15 17 20 6 30
-11 11 -13 10 -7 0z"/>
<path d="M6638 6513 c7 -3 16 -2 19 1 4 3 -2 6 -13 5 -11 0 -14 -3 -6 -6z"/>
<path d="M5060 6496 c0 -2 7 -7 16 -10 8 -3 12 -2 9 4 -6 10 -25 14 -25 6z"/>
<path d="M5030 6479 c0 -5 5 -7 10 -4 6 3 10 8 10 11 0 2 -4 4 -10 4 -5 0 -10
-5 -10 -11z"/>
<path d="M4990 6453 c-13 -15 -12 -16 4 -10 10 4 20 7 22 7 2 0 4 5 4 10 0 15
-13 12 -30 -7z"/>
<path d="M4854 6438 c1 -18 5 -23 12 -17 6 5 14 6 17 2 4 -3 7 -1 7 5 0 7 -6
12 -14 12 -8 0 -16 6 -19 13 -2 6 -4 0 -3 -15z"/>
<path d="M5629 6443 c-13 -17 -13 -17 6 -3 11 8 22 16 24 17 2 2 0 3 -6 3 -6
0 -17 -8 -24 -17z"/>
<path d="M4950 6430 c0 -5 5 -10 11 -10 5 0 7 5 4 10 -3 6 -8 10 -11 10 -2 0
-4 -4 -4 -10z"/>
<path d="M5036 6408 c3 -4 16 -8 30 -8 14 0 22 4 19 10 -3 5 -17 9 -30 8 -13
-1 -21 -6 -19 -10z"/>
<path d="M4740 6400 c-9 -6 -10 -10 -3 -10 6 0 15 5 18 10 8 12 4 12 -15 0z"/>
<path d="M5120 6365 c0 -9 5 -15 11 -13 6 2 11 8 11 13 0 5 -5 11 -11 13 -6 2
-11 -4 -11 -13z"/>
<path d="M5165 6310 c4 -6 11 -8 16 -5 14 9 11 15 -7 15 -8 0 -12 -5 -9 -10z"/>
<path d="M5128 6303 c10 -4 10 -8 1 -19 -13 -16 -1 -18 21 -4 13 9 13 11 0 20
-8 5 -19 9 -25 9 -5 0 -4 -3 3 -6z"/>
<path d="M5960 6284 c-14 -37 -12 -51 9 -66 21 -15 17 -25 -85 -217 -19 -35
-34 -74 -34 -86 0 -44 142 -140 198 -133 23 2 27 8 27 33 0 27 -6 33 -72 64
-40 19 -73 38 -73 42 0 5 13 29 30 55 38 61 87 180 96 232 6 37 3 44 -24 72
-37 37 -59 38 -72 4z"/>
<path d="M6356 6278 c-14 -13 -28 -35 -32 -50 -13 -59 91 -123 189 -116 33 2
44 8 57 30 13 24 13 32 0 70 -12 35 -24 47 -60 66 -25 12 -63 22 -87 22 -29 0
-49 -7 -67 -22z"/>
<path d="M4855 6240 c-4 -6 -12 -7 -18 -3 -7 4 -6 0 2 -10 7 -9 18 -14 24 -10
6 4 8 0 4 -10 -4 -11 -1 -17 7 -17 9 0 12 7 9 20 -3 11 -10 20 -15 20 -5 0 -6
5 -3 10 3 6 4 10 1 10 -3 0 -8 -5 -11 -10z"/>
<path d="M4940 6230 c0 -5 5 -10 10 -10 6 0 10 5 10 10 0 6 -4 10 -10 10 -5 0
-10 -4 -10 -10z"/>
<path d="M4990 6230 c0 -5 7 -10 15 -10 8 0 15 5 15 10 0 6 -7 10 -15 10 -8 0
-15 -4 -15 -10z"/>
<path d="M2813 6008 c-119 -203 -149 -259 -334 -623 -184 -364 -413 -888 -421
-965 -3 -21 1 -25 22 -22 41 4 69 43 110 153 108 291 378 862 575 1214 40 72
102 183 139 249 70 124 73 146 21 146 -19 0 -39 -27 -112 -152z"/>
<path d="M5328 6125 c-63 -23 -127 -73 -149 -117 -23 -45 -20 -72 11 -106 26
-27 88 -30 128 -5 124 79 174 171 122 223 -23 23 -59 25 -112 5z"/>
<path d="M9173 5924 c-7 -20 6 -321 18 -393 9 -60 23 -81 39 -65 17 17 13 361
-6 452 -5 26 -41 31 -51 6z"/>
<path d="M6239 5544 c-79 -60 -191 -102 -297 -112 -62 -7 -67 -9 -70 -33 -6
-51 81 -64 207 -29 101 28 159 60 209 114 45 49 48 56 30 74 -18 18 -41 14
-79 -14z"/>
<path d="M9136 5028 c-7 -13 -19 -48 -26 -78 -13 -60 -19 -82 -51 -183 -16
-51 -25 -67 -37 -65 -27 5 -28 -38 -1 -52 36 -20 64 1 89 67 33 87 91 306 85
320 -7 21 -43 15 -59 -9z"/>
<path d="M8972 4388 c-67 -162 -74 -204 -42 -233 23 -20 17 -29 74 120 19 50
40 104 47 122 10 26 10 34 0 47 -28 33 -48 19 -79 -56z"/>
<path d="M2001 4238 c-34 -54 -71 -140 -100 -232 -69 -217 -171 -647 -171
-723 0 -16 6 -23 19 -23 28 0 39 20 57 96 81 342 163 619 243 822 28 70 27 82
-7 82 -17 0 -32 -8 -41 -22z"/>
<path d="M9225 1851 c-36 -8 -59 -46 -43 -74 8 -16 17 -18 55 -13 48 6 99 32
107 53 13 34 -43 50 -119 34z"/>
<path d="M27 103 c-25 -4 -27 -8 -27 -54 0 -48 1 -49 30 -49 30 0 30 1 30 55
0 30 -1 54 -2 54 -2 -1 -15 -4 -31 -6z"/>
</g>
</svg>
