<svg id="svg" version="1.1" xmlns="http://www.w3.org/2000/svg" style="display: block;" viewBox="0 0 256 256"><path d="M0 0 C84.48 0 168.96 0 256 0 C256 84.48 256 168.96 256 256 C171.52 256 87.04 256 0 256 C0 171.52 0 87.04 0 0 Z " transform="translate(0,0)" style="fill: #030202;"/><path d="M0 0 C84.48 0 168.96 0 256 0 C256 84.48 256 168.96 256 256 C171.52 256 87.04 256 0 256 C0 171.52 0 87.04 0 0 Z M28 18 C2.87499368 48.5332704 1.50853617 86.28942584 1.69581819 123.94317961 C1.7148331 128.42472134 1.71635464 132.90627204 1.71989441 137.3878479 C1.72914318 145.83742214 1.75365763 154.2868771 1.78394288 162.73639929 C1.81771295 172.37153389 1.83402917 182.00667481 1.84902918 191.64185405 C1.88021538 211.42796876 1.9328331 231.2139768 2 251 C3.98 251 5.96 251 8 251 C8.01981934 250.03698975 8.03963867 249.07397949 8.06005859 248.08178711 C8.13657179 244.48274151 8.22521561 240.88407631 8.31738281 237.28540039 C8.35548484 235.73274284 8.39036928 234.18000267 8.421875 232.62719727 C8.46793685 230.38528053 8.52585878 228.14392355 8.5859375 225.90234375 C8.60326431 224.87378517 8.60326431 224.87378517 8.62094116 223.82444763 C8.94508772 213.05491228 8.94508772 213.05491228 12 210 C13.42946471 209.90445601 14.86362665 209.87811562 16.29627991 209.87974548 C17.22321152 209.87837082 18.15014313 209.87699615 19.10516357 209.87557983 C20.64264252 209.88097275 20.64264252 209.88097275 22.21118164 209.88647461 C23.28422043 209.88632858 24.35725922 209.88618256 25.46281433 209.8860321 C29.02861516 209.88673176 32.59436449 209.89452662 36.16015625 209.90234375 C38.62495393 209.90420774 41.08975199 209.90563173 43.55455017 209.90663147 C50.05653905 209.91045813 56.55850575 209.92028968 63.06048584 209.93133545 C69.68940817 209.94208252 76.31833693 209.94612841 82.94726562 209.95117188 C95.96485324 209.96191181 108.98242544 209.97879903 122 210 C122.3291878 211.74947603 122.65527837 213.49953502 122.98007202 215.24983215 C123.16199789 216.22433225 123.34392376 217.19883234 123.53136253 218.20286274 C124.12119976 221.72340008 124.32053285 225.06700395 124.4140625 228.63671875 C124.45273438 229.95478516 124.49140625 231.27285156 124.53125 232.63085938 C124.5626853 233.98306862 124.59393313 235.33528224 124.625 236.6875 C124.66329144 238.08270367 124.7023491 239.47788652 124.7421875 240.87304688 C124.83562763 244.24857169 124.92139416 247.6241027 125 251 C126.99954746 251.04254356 129.00041636 251.04080783 131 251 C133.03661681 248.96338319 132.20913012 244.75244547 132.24609375 241.94921875 C132.27904035 240.28450011 132.31225185 238.6197867 132.34570312 236.95507812 C132.39308221 234.32173368 132.43748642 231.6884092 132.47680664 229.05493164 C132.51656843 226.51946297 132.56811343 223.98444084 132.62109375 221.44921875 C132.6295079 220.66367111 132.63792206 219.87812347 132.64659119 219.06877136 C132.80483865 212.05843251 132.80483865 212.05843251 135 209 C137.31450774 207.84274613 138.63097128 207.87427982 141.20652771 207.87301636 C142.08842773 207.87019653 142.97032776 207.86737671 143.87895203 207.86447144 C144.84887589 207.86649567 145.81879974 207.8685199 146.81811523 207.87060547 C147.83771332 207.86885315 148.8573114 207.86710083 149.9078064 207.86529541 C153.2914193 207.86088009 156.67498028 207.863814 160.05859375 207.8671875 C162.40267446 207.86651432 164.7467551 207.86554417 167.09083557 207.86428833 C172.0095384 207.86281175 176.9282231 207.86496446 181.84692383 207.86962891 C188.16007399 207.87532302 194.47318162 207.87204893 200.78633022 207.86605644 C205.62893496 207.8624471 210.47152956 207.8635912 215.3141346 207.86618423 C217.6422126 207.86685263 219.97029151 207.86602812 222.29836845 207.86370468 C225.54976723 207.86117242 228.80109664 207.86502709 232.05249023 207.87060547 C233.02038986 207.86858124 233.98828949 207.86655701 234.98551941 207.86447144 C235.87023926 207.86729126 236.75495911 207.87011108 237.66648865 207.87301636 C238.81990328 207.8735819 238.81990328 207.8735819 239.99661922 207.87415886 C242 208 242 208 245 209 C246.07765373 213.4371721 246.21674522 217.82136272 246.31640625 222.36328125 C246.3475779 223.55125557 246.3475779 223.55125557 246.37937927 224.76322937 C246.44447804 227.27956928 246.50357423 229.79600872 246.5625 232.3125 C246.605723 234.02409861 246.64933848 235.73568735 246.69335938 237.44726562 C246.80011847 241.63140984 246.90149635 245.81565362 247 250 C249.31 250 251.62 250 254 250 C254 179.38 254 108.76 254 36 C232.02685344 33.87227095 232.02685344 33.87227095 210 33 C208.68737429 34.08552366 208.68737429 34.08552366 208.90234375 36.72265625 C208.91394531 37.82480469 208.92554688 38.92695312 208.9375 40.0625 C208.94652344 41.16722656 208.95554688 42.27195313 208.96484375 43.41015625 C208.97644531 44.26480469 208.98804688 45.11945312 209 46 C209.68964844 46.29132812 210.37929687 46.58265625 211.08984375 46.8828125 C225.1281185 53.00650437 236.01742363 60.82437726 241.83203125 75.44140625 C247.94571373 94.06871306 247.18682177 114.55441103 247.18530273 133.92358398 C247.18751866 137.0891611 247.20583811 140.25440465 247.22460938 143.41992188 C247.22753929 145.45833216 247.22952677 147.49674407 247.23046875 149.53515625 C247.23765427 150.46860367 247.24483978 151.40205109 247.25224304 152.36378479 C247.20557892 165.79442108 247.20557892 165.79442108 244 169 C242.46617321 169.1225355 240.92689481 169.17777938 239.38842773 169.20532227 C238.40748642 169.22526749 237.4265451 169.24521271 236.4158783 169.26576233 C234.81589745 169.29083107 234.81589745 169.29083107 233.18359375 169.31640625 C232.0974025 169.33718735 231.01121124 169.35796844 229.8921051 169.37937927 C226.40730373 169.44499442 222.92242432 169.50381511 219.4375 169.5625 C217.08137199 169.60567385 214.72525201 169.64928776 212.36914062 169.69335938 C206.57951063 169.80068792 200.78980225 169.90243165 195 170 C195.09511738 165.96524448 195.20150898 161.93094246 195.31738281 157.89672852 C195.3551487 156.53059556 195.39008168 155.1643807 195.421875 153.7980957 C196.1621896 122.34629273 196.1621896 122.34629273 206.359375 111.40234375 C210.38838465 107.95849979 214.8447839 107.03104322 220 106 C220 101.71 220 97.42 220 93 C200.53 93 181.06 93 161 93 C161 97.29 161 101.58 161 106 C162.876875 106.433125 164.75375 106.86625 166.6875 107.3125 C172.04269645 108.54831457 176.30247326 109.7736726 179.73046875 114.26953125 C185.23466483 123.87605041 187.06450455 132.34504427 187.31640625 143.33984375 C187.33718735 144.10680069 187.35796844 144.87375763 187.37937927 145.66395569 C187.44420832 148.08838872 187.50344621 150.51292013 187.5625 152.9375 C187.60574879 154.59180662 187.64936499 156.24610367 187.69335938 157.90039062 C187.79982024 161.93349566 187.90127062 165.96669859 188 170 C180.64884932 169.98375379 173.2987114 169.9290706 165.94799805 169.84741211 C163.44643724 169.82418785 160.94477805 169.80982609 158.44311523 169.80444336 C154.85077273 169.79518658 151.25998744 169.75426465 147.66796875 169.70703125 C145.98503975 169.71293022 145.98503975 169.71293022 144.26811218 169.71894836 C143.22725967 169.69930527 142.18640717 169.67966217 141.11401367 169.65942383 C139.7383448 169.64943108 139.7383448 169.64943108 138.33488464 169.63923645 C136 169 136 169 134.24287415 166.83378601 C132.14578608 162.0523696 131.8771627 157.45124614 131.84228516 152.28369141 C131.83202301 151.18038483 131.82176086 150.07707825 131.81118774 148.94033813 C131.80388641 147.75604218 131.79658508 146.57174622 131.7890625 145.3515625 C131.76094401 142.79166082 131.73227938 140.23176509 131.703125 137.671875 C131.66122191 133.67742973 131.62538887 129.68305735 131.59863281 125.68847656 C131.3361959 89.55362832 129.3901162 48.03585262 105 19 C104.236875 17.96875 103.47375 16.9375 102.6875 15.875 C94.38942124 6.99798551 83.2502387 1.35299529 71.07421875 0.83203125 C69.61201282 0.82016484 68.14975351 0.81378606 66.6875 0.8125 C65.96626953 0.80025391 65.24503906 0.78800781 64.50195312 0.77539062 C50.11268013 0.73667509 37.60760615 7.52041639 28 18 Z " transform="translate(0,0)" style="fill: #FEFEFD;"/><path d="M0 0 C1.29479789 1.1400118 2.56933026 2.30389905 3.8125 3.5 C4.72 4.325 5.6275 5.15 6.5625 6 C21.63689689 22.74932987 23.93258846 47.40181531 24.015625 69.04296875 C24.02132507 70.21080399 24.02702515 71.37863922 24.03289795 72.5818634 C24.0422902 75.0349539 24.04885876 77.48805669 24.05273438 79.94116211 C24.06249845 83.68690718 24.09360049 87.43211631 24.125 91.17773438 C24.1315258 93.57030927 24.13677793 95.96288805 24.140625 98.35546875 C24.1529718 99.46915329 24.1653186 100.58283783 24.17803955 101.73027039 C24.14242709 114.17007291 24.14242709 114.17007291 19.8125 118.5 C18.42805469 118.60189385 17.03847897 118.63517643 15.65029907 118.64044189 C14.7529454 118.64615204 13.85559174 118.65186218 12.93104553 118.65774536 C11.44271461 118.65942215 11.44271461 118.65942215 9.92431641 118.66113281 C8.88535721 118.66609772 7.84639801 118.67106262 6.7759552 118.67617798 C3.32198435 118.69084236 -0.13194057 118.69760862 -3.5859375 118.703125 C-5.97628787 118.70887282 -8.36663821 118.7146306 -10.75698853 118.72039795 C-15.77582007 118.73092005 -20.79463553 118.73675483 -25.81347656 118.74023438 C-32.25564853 118.74572235 -38.69760948 118.76975195 -45.13971519 118.79820633 C-50.07926053 118.81679723 -55.01875468 118.82203641 -59.95833206 118.82357025 C-62.33387023 118.82660522 -64.70940732 118.83466193 -67.08491135 118.84775543 C-70.40361495 118.86474208 -73.72179834 118.86295366 -77.04052734 118.85644531 C-78.52278557 118.87026749 -78.52278557 118.87026749 -80.0349884 118.8843689 C-81.38947838 118.87601517 -81.38947838 118.87601517 -82.77133179 118.86749268 C-83.55632238 118.86895924 -84.34131298 118.8704258 -85.15009117 118.8719368 C-87.74304846 118.3985825 -88.58524483 117.55923965 -90.1875 115.5 C-92.40916051 109.72859292 -92.47966742 104.30108389 -92.453125 98.16796875 C-92.45599518 96.68203972 -92.45599518 96.68203972 -92.45892334 95.16609192 C-92.46028059 93.07076768 -92.45661633 90.9754349 -92.44824219 88.88012695 C-92.43766197 85.7356375 -92.4480878 82.59173595 -92.4609375 79.44726562 C-92.47925703 54.04334276 -91.45038913 23.74770176 -72.42578125 4.390625 C-53.7682592 -11.36895732 -20.29118845 -15.20175922 0 0 Z " transform="translate(100.1875,52.5)" style="fill: #FEFEFE;"/><path d="M0 0 C11.55 0.99 23.1 1.98 35 3 C35 73.62 35 144.24 35 217 C32.69 217 30.38 217 28 217 C27.97494385 215.93563721 27.9498877 214.87127441 27.92407227 213.7746582 C27.8296833 209.81425571 27.72954025 205.85401577 27.62768555 201.89379883 C27.58445555 200.18192353 27.54277235 198.47000843 27.50268555 196.75805664 C27.44469286 194.29300966 27.38108303 191.82816082 27.31640625 189.36328125 C27.29969376 188.60163162 27.28298126 187.83998199 27.26576233 187.05525208 C27.16082086 183.2650395 26.89607373 179.6895278 26 176 C23.219287 175.07309567 21.54451407 174.87068453 18.67321777 174.85955811 C17.78994308 174.85384796 16.9066684 174.84813782 15.99662781 174.84225464 C15.03029922 174.84113678 14.06397064 174.84001892 13.06835938 174.83886719 C12.04861526 174.83390228 11.02887115 174.82893738 9.97822571 174.82382202 C6.60006032 174.80919896 3.22194185 174.8023992 -0.15625 174.796875 C-2.49890139 174.791125 -4.84155275 174.78536725 -7.1842041 174.77960205 C-12.09692606 174.76909257 -17.00963166 174.76324911 -21.92236328 174.75976562 C-28.22771716 174.75427183 -34.53285608 174.73022456 -40.8381424 174.70179367 C-45.67645916 174.68320525 -50.51472366 174.67796378 -55.35307312 174.67642975 C-57.67837198 174.67339562 -60.00366976 174.66534171 -62.32893372 174.65224457 C-65.57557754 174.63525868 -68.8216896 174.6370458 -72.06835938 174.64355469 C-73.51785225 174.62973251 -73.51785225 174.62973251 -74.99662781 174.6156311 C-76.32153984 174.62398483 -76.32153984 174.62398483 -77.67321777 174.63250732 C-78.44086205 174.63104076 -79.20850632 174.6295742 -79.99941254 174.6280632 C-82.54114944 175.10060714 -83.39784193 176.01350091 -85 178 C-86.60951543 181.21903085 -86.24234748 184.74838832 -86.31640625 188.2890625 C-86.33718735 189.10748627 -86.35796844 189.92591003 -86.37937927 190.76913452 C-86.44484812 193.38766966 -86.50374726 196.00630639 -86.5625 198.625 C-86.60568776 200.39844807 -86.64930214 202.17188581 -86.69335938 203.9453125 C-86.80052676 208.29677046 -86.90180169 212.64833077 -87 217 C-87.33 217 -87.66 217 -88 217 C-88 186.64 -88 156.28 -88 125 C-87.67 125 -87.34 125 -87 125 C-86.87882813 125.62648438 -86.75765625 126.25296875 -86.6328125 126.8984375 C-86.38144531 128.12433594 -86.38144531 128.12433594 -86.125 129.375 C-85.88136719 130.59316406 -85.88136719 130.59316406 -85.6328125 131.8359375 C-85.13341068 134.18673923 -85.13341068 134.18673923 -83 136 C-80.69661198 136.33101534 -80.69661198 136.33101534 -77.99951172 136.31884766 C-76.95858368 136.33871735 -75.91765564 136.35858704 -74.84518433 136.37905884 C-73.71807037 136.39061005 -72.59095642 136.40216125 -71.4296875 136.4140625 C-70.27832306 136.43342865 -69.12695862 136.4527948 -67.94070435 136.4727478 C-64.25221231 136.53267372 -60.56368928 136.57898126 -56.875 136.625 C-54.37889241 136.66316777 -51.88279815 136.70221878 -49.38671875 136.7421875 C-43.25793063 136.83838588 -37.12906262 136.92339506 -31 137 C-31.09442283 132.19825378 -31.20069888 127.39696008 -31.31738281 122.59570312 C-31.35537511 120.96654201 -31.3902765 119.33730548 -31.421875 117.70800781 C-31.70071757 103.50446419 -32.14353279 90.70956645 -41.3125 79.0625 C-46.49578394 75.08463093 -51.59112444 74.06814593 -58 73 C-58 68.71 -58 64.42 -58 60 C-38.53 60 -19.06 60 1 60 C1 64.29 1 68.58 1 73 C-0.505625 73.37125 -2.01125 73.7425 -3.5625 74.125 C-10.41392735 76.20853165 -14.90542558 79.52261582 -18.3125 85.875 C-23.44424773 97.43239766 -23.20308272 110.14720011 -23.5625 122.5625 C-23.60579176 123.96680703 -23.64940904 125.37110406 -23.69335938 126.77539062 C-23.79876511 130.18350951 -23.90088982 133.5916932 -24 137 C-17.05791563 136.93317749 -10.11640238 136.84344252 -3.17480469 136.73754883 C-0.81191797 136.7042344 1.55104958 136.67622303 3.9140625 136.65356445 C7.30503893 136.6201383 10.69527016 136.56782853 14.0859375 136.51171875 C15.67817642 136.50213387 15.67817642 136.50213387 17.30258179 136.49235535 C18.28344757 136.47256119 19.26431335 136.45276703 20.27490234 136.43237305 C21.14094086 136.42126999 22.00697937 136.41016693 22.89926147 136.39872742 C23.59250519 136.26714737 24.2857489 136.13556732 25 136 C28.85810497 130.21284254 28.14724244 123.45823083 28.1328125 116.73046875 C28.13424759 115.23885979 28.13424759 115.23885979 28.13571167 113.71711731 C28.13639098 111.61162249 28.13455408 109.50612554 28.13037109 107.40063477 C28.12508181 104.23644062 28.13029199 101.07239251 28.13671875 97.90820312 C28.2726408 75.17413239 28.2726408 75.17413239 25.3125 52.6875 C25.14169922 51.85210693 24.97089844 51.01671387 24.79492188 50.15600586 C22.00289296 37.5000327 16.41806008 27.97109004 5.59765625 20.640625 C0.61440624 17.4933092 -4.52682234 15.15724214 -10 13 C-10.02686553 11.02090602 -10.04633375 9.04171029 -10.0625 7.0625 C-10.07410156 5.96035156 -10.08570313 4.85820313 -10.09765625 3.72265625 C-9.87560856 -2.46803329 -7.57426446 0 0 0 Z " transform="translate(219,33)" style="fill: #F82A05;"/><path d="M0 0 C11.55 0.99 23.1 1.98 35 3 C35 73.62 35 144.24 35 217 C32.69 217 30.38 217 28 217 C27.97494385 215.93563721 27.9498877 214.87127441 27.92407227 213.7746582 C27.8296833 209.81425571 27.72954025 205.85401577 27.62768555 201.89379883 C27.58445555 200.18192353 27.54277235 198.47000843 27.50268555 196.75805664 C27.44469286 194.29300966 27.38108303 191.82816082 27.31640625 189.36328125 C27.29133751 188.22080681 27.29133751 188.22080681 27.26576233 187.05525208 C27.16082086 183.2650395 26.89607373 179.6895278 26 176 C25.01 175.67 24.02 175.34 23 175 C23.66 174.67 24.32 174.34 25 174 C28.13813309 176.09208873 28.81790078 176.57198225 30 180 C30.16858166 182.79084219 30.23284241 185.47771993 30.1953125 188.265625 C30.1924826 189.05902283 30.18965271 189.85242065 30.18673706 190.66986084 C30.17556779 193.19672917 30.15046944 195.72323932 30.125 198.25 C30.11496598 199.9661407 30.10584087 201.68228698 30.09765625 203.3984375 C30.07563914 207.59909574 30.04113187 211.7994872 30 216 C31.32 216 32.64 216 34 216 C34 146.04 34 76.08 34 4 C25.75 4 17.5 4 9 4 C8.67 3.67 8.34 3.34 8 3 C5.30764224 2.76321284 2.63501844 2.57801975 -0.0625 2.4375 C-0.82111328 2.39431641 -1.57972656 2.35113281 -2.36132812 2.30664062 C-4.24065438 2.20026367 -6.12030244 2.09960066 -8 2 C-8 5.63 -8 9.26 -8 13 C-8.66 13 -9.32 13 -10 13 C-10.02686553 11.02090602 -10.04633375 9.04171029 -10.0625 7.0625 C-10.07410156 5.96035156 -10.08570313 4.85820313 -10.09765625 3.72265625 C-9.87560856 -2.46803329 -7.57426446 0 0 0 Z " transform="translate(219,33)" style="fill: #D83A1C;"/><path d="M0 0 C5.28640498 0.04021246 10.50492502 0.29664282 15.76881409 0.77697754 C16.53294113 0.84356567 17.29706818 0.91015381 18.08435059 0.97875977 C20.48862365 1.18910613 22.89237894 1.40481492 25.29615784 1.62072754 C26.94130869 1.76561621 28.58649079 1.91015053 30.23170471 2.05432129 C34.23272802 2.4057022 38.23329686 2.761888 42.23365784 3.12072754 C42.23365784 3.45072754 42.23365784 3.78072754 42.23365784 4.12072754 C37.92117174 4.14959291 33.60871022 4.16748009 29.29615784 4.18322754 C27.44860901 4.1957959 27.44860901 4.1957959 25.56373596 4.20861816 C24.39391174 4.21184082 23.22408752 4.21506348 22.01881409 4.21838379 C20.39278259 4.22623901 20.39278259 4.22623901 18.73390198 4.23425293 C16.23365784 4.12072754 16.23365784 4.12072754 15.23365784 3.12072754 C12.54130008 2.88394037 9.86867628 2.69874729 7.17115784 2.55822754 C6.41254456 2.51504395 5.65393127 2.47186035 4.87232971 2.42736816 C2.99300346 2.32099121 1.1133554 2.2203282 -0.76634216 2.12072754 C-0.76634216 5.75072754 -0.76634216 9.38072754 -0.76634216 13.12072754 C-1.42634216 13.12072754 -2.08634216 13.12072754 -2.76634216 13.12072754 C-2.79320769 11.14163356 -2.81267592 9.16243783 -2.82884216 7.18322754 C-2.84044373 6.0810791 -2.85204529 4.97893066 -2.86399841 3.84338379 C-2.73284357 0.18678684 -2.73284357 0.18678684 0 0 Z " transform="translate(211.76634216308594,32.8792724609375)" style="fill: #DD462C;"/></svg>