<svg id="svg" version="1.1" xmlns="http://www.w3.org/2000/svg" style="display: block;" viewBox="0 0 32 32"><path d="M0 0 C10.56 0 21.12 0 32 0 C32 10.56 32 21.12 32 32 C21.44 32 10.88 32 0 32 C0 21.44 0 10.88 0 0 Z " transform="translate(0,0)" style="fill: #050303;"/><path d="M0 0 C6.93 0 13.86 0 21 0 C21 1.65 21 3.3 21 5 C19.02 5 17.04 5 15 5 C15.825 5.61875 16.65 6.2375 17.5 6.875 C19.4607264 8.7914162 19.96648361 9.76966397 20.3671875 12.5234375 C20.37443711 15.05355015 20.32529824 17.49055643 20 20 C19 21 19 21 16.4375 21.0625 C15.633125 21.041875 14.82875 21.02125 14 21 C13.875 18.125 13.875 18.125 14 15 C14.66 14.34 15.32 13.68 16 13 C14.02 13 12.04 13 10 13 C10.66 13.66 11.32 14.32 12 15 C12.125 18.125 12.125 18.125 12 21 C10.00045254 21.04254356 7.99958364 21.04080783 6 21 C3.7702629 18.7702629 4.6752774 13.51000775 4.57421875 10.4921875 C4.07462814 6.18622572 4.07462814 6.18622572 0 0 Z " transform="translate(11,0)" style="fill: #FEFAF8;"/><path d="M0 0 C2.3125 1.3125 2.3125 1.3125 4 4 C4.38769862 7.69390628 4.37258911 11.30464903 4 15 C3 16 3 16 0.3125 16.1328125 C-0.780625 16.13023438 -1.87375 16.12765625 -3 16.125 C-4.093125 16.12757812 -5.18625 16.13015625 -6.3125 16.1328125 C-9 16 -9 16 -10 15 C-10.46794633 10.64449958 -10.46279496 7.00973446 -8.625 3 C-6.04829932 -0.17132391 -3.98026531 -0.47384111 0 0 Z " transform="translate(11,5)" style="fill: #FEFEFE;"/><path d="M0 0 C9.33333333 0 18.66666667 0 28 0 C28.66 1.98 29.32 3.96 30 6 C19.44 6 8.88 6 -2 6 C-1.34 4.02 -0.68 2.04 0 0 Z " transform="translate(2,26)" style="fill: #FEFBFA;"/><path d="M0 0 C2.31 0.33 4.62 0.66 7 1 C7 9.58 7 18.16 7 27 C6.34 25.68 5.68 24.36 5 23 C0.38 23 -4.24 23 -9 23 C-9 21.02 -9 19.04 -9 17 C-6.69 17 -4.38 17 -2 17 C-3.21044132 12.39257135 -3.21044132 12.39257135 -5 8 C-2.36 8 0.28 8 3 8 C2.01 9.485 2.01 9.485 1 11 C0.60986284 12.9896995 0.26797351 14.99019869 0 17 C1.65 16.67 3.3 16.34 5 16 C5.66839473 9.79602814 5.66839473 9.79602814 3.88671875 4 C2.38506596 2.18305519 2.38506596 2.18305519 0 0 Z " transform="translate(25,4)" style="fill: #F02C08;"/><path d="M0 0 C0.99 0.495 0.99 0.495 2 1 C4.2072923 1.07092842 6.41667452 1.08415025 8.625 1.0625 C10.40777344 1.04896484 10.40777344 1.04896484 12.2265625 1.03515625 C13.59941406 1.01775391 13.59941406 1.01775391 15 1 C15.33 4.63 15.66 8.26 16 12 C15.34 10.68 14.68 9.36 14 8 C10.04 8 6.08 8 2 8 C1.34 9.32 0.68 10.64 0 12 C0 8.04 0 4.08 0 0 Z " transform="translate(0,19)" style="fill: #020202;"/><path d="M0 0 C2.64 0 5.28 0 8 0 C7.01 1.485 7.01 1.485 6 3 C5.60986284 4.9896995 5.26797351 6.99019869 5 9 C6.65 9 8.3 9 10 9 C10 9.33 10 9.66 10 10 C5.71 10 1.42 10 -3 10 C-3 10.99 -3 11.98 -3 13 C1.29 13 5.58 13 10 13 C10 13.33 10 13.66 10 14 C5.38 14.33 0.76 14.66 -4 15 C-4 13.02 -4 11.04 -4 9 C-1.69 9 0.62 9 3 9 C1.78955868 4.39257135 1.78955868 4.39257135 0 0 Z " transform="translate(20,12)" style="fill: #C23921;"/><path d="M0 0 C2 2 2 2 2.23046875 4.34765625 C2.21628906 5.24355469 2.20210937 6.13945312 2.1875 7.0625 C2.18105469 7.96097656 2.17460937 8.85945313 2.16796875 9.78515625 C2 12 2 12 1 13 C-0.66617115 13.04063832 -2.33388095 13.042721 -4 13 C-4.1875 10.1875 -4.1875 10.1875 -4 7 C-2.5625 5.375 -2.5625 5.375 -1 4 C-0.28552357 1.89667109 -0.28552357 1.89667109 0 0 Z " transform="translate(29,8)" style="fill: #FEEFE6;"/><path d="M0 0 C2.31 0.33 4.62 0.66 7 1 C7 5.95 7 10.9 7 16 C6.67 16 6.34 16 6 16 C5.98582031 15.34773438 5.97164062 14.69546875 5.95703125 14.0234375 C5.60699095 7.60918559 4.61719783 4.49880814 0 0 Z " transform="translate(25,4)" style="fill: #CE3B20;"/><path d="M0 0 C1.98 0 3.96 0 6 0 C4 3 2 6 0 9 C0 6.03 0 3.06 0 0 Z " transform="translate(0,0)" style="fill: #FEFEFE;"/><path d="M0 0 C2.64 0 5.28 0 8 0 C6.515 1.98 6.515 1.98 5 4 C1.125 2.25 1.125 2.25 0 0 Z " transform="translate(20,12)" style="fill: #D23D22;"/></svg>